<svg width="37" height="31" viewBox="0 0 37 31" fill="none" xmlns="http://www.w3.org/2000/svg">
<path d="M4.92137 8.81C5.46137 8.01 6.20137 7.36 7.14137 6.86C8.10137 6.36 9.19137 6.11 10.4114 6.11C11.8314 6.11 13.1114 6.46 14.2514 7.16C15.4114 7.86 16.3214 8.86 16.9814 10.16C17.6614 11.44 18.0014 12.93 18.0014 14.63C18.0014 16.33 17.6614 17.84 16.9814 19.16C16.3214 20.46 15.4114 21.47 14.2514 22.19C13.1114 22.91 11.8314 23.27 10.4114 23.27C9.17137 23.27 8.08137 23.03 7.14137 22.55C6.22137 22.05 5.48137 21.41 4.92137 20.63V23H0.721367V0.8H4.92137V8.81ZM13.7114 14.63C13.7114 13.63 13.5014 12.77 13.0814 12.05C12.6814 11.31 12.1414 10.75 11.4614 10.37C10.8014 9.99 10.0814 9.8 9.30137 9.8C8.54137 9.8 7.82137 10 7.14137 10.4C6.48137 10.78 5.94137 11.34 5.52137 12.08C5.12137 12.82 4.92137 13.69 4.92137 14.69C4.92137 15.69 5.12137 16.56 5.52137 17.3C5.94137 18.04 6.48137 18.61 7.14137 19.01C7.82137 19.39 8.54137 19.58 9.30137 19.58C10.0814 19.58 10.8014 19.38 11.4614 18.98C12.1414 18.58 12.6814 18.01 13.0814 17.27C13.5014 16.53 13.7114 15.65 13.7114 14.63ZM36.9534 6.38L26.6634 30.86H22.1934L25.7934 22.58L19.1334 6.38H23.8434L28.1334 17.99L32.4834 6.38H36.9534Z" fill="#5B57A6"/>
</svg>
