<svg width="194" height="39" viewBox="0 0 194 39" fill="none" xmlns="http://www.w3.org/2000/svg">
<g filter="url(#filter0_d_722_5628)">
<path d="M47.3601 7.24017C47.0164 6.92124 46.4502 6.92124 46.1065 7.24017C45.8639 7.45947 45.783 7.7784 45.8436 8.07729C45.884 8.27656 45.8234 8.49586 45.6819 8.6554L45.601 8.73518C45.4999 8.83481 45.3584 8.8747 45.2168 8.89456C45.0753 8.89456 44.9338 8.97433 44.8327 9.09382C44.6912 9.27323 44.6912 9.53241 44.8327 9.71182C45.0348 9.95097 45.3787 9.971 45.6011 9.75171C45.7022 9.65208 45.7427 9.55244 45.7427 9.43278C45.7427 9.2734 45.8236 9.13371 45.9247 9.03408L45.9853 8.97433C46.1268 8.83481 46.3493 8.77507 46.5514 8.81495C46.8548 8.8747 47.158 8.79509 47.3804 8.5758C47.7444 8.1771 47.7444 7.59916 47.3603 7.24034L47.3601 7.24017Z" fill="#0CEAC6"/>
<path fill-rule="evenodd" clip-rule="evenodd" d="M18.9514 31.0001C20.644 31.0001 22.0778 29.886 22.5377 28.3517L25.8667 22.6457V27.3125C25.8667 29.3457 27.5449 31.0001 29.6074 31.0001C31.2878 31.0001 32.7131 29.9019 33.1836 28.3847L36.5833 22.5685C37.5943 20.8543 36.9877 18.6617 35.2487 17.6651C34.6497 17.3217 33.993 17.1676 33.3482 17.1832V9.82253L35.9364 5.38634C36.9474 3.67221 36.3409 1.4796 34.6019 0.482932C32.8427 -0.51374 30.6185 0.0842293 29.6075 1.79853L22.6922 13.6613V9.49255C22.6922 9.08441 22.6246 8.69153 22.4998 8.32424C22.2781 7.39047 21.679 6.54442 20.7713 6.02419C19.0324 5.02752 16.8082 5.62549 15.7972 7.33979L5.14126 25.5187C4.13023 27.2328 4.73681 29.4254 6.47581 30.4221C8.21464 31.3987 10.4388 30.8208 11.4499 29.1065L15.2107 22.6906V27.3125C15.2107 29.3457 16.8889 31.0001 18.9514 31.0001ZM30.2746 18.9807C30.9045 17.9126 32.0053 17.2779 33.1662 17.1921V10.1345L26.0487 22.3338V26.5361C26.1273 26.1873 26.261 25.8443 26.4531 25.5186L30.2746 18.9807ZM15.3927 22.3801V26.4294C15.4723 26.1314 15.593 25.8387 15.7569 25.5584L22.5102 13.9735V9.91045C22.4316 10.2591 22.2979 10.602 22.1058 10.9276L15.3927 22.3801ZM46.3092 11.0274C46.0463 10.7085 45.6622 10.569 45.2781 10.5888C44.5905 10.6287 44.0244 10.1105 43.903 9.47268C43.871 9.29348 43.8898 9.11985 43.9086 8.94586C43.9254 8.79091 43.9422 8.63568 43.9232 8.47601C43.8827 8.07731 43.6806 7.71849 43.3975 7.45948C43.3773 7.43953 43.352 7.41959 43.3267 7.39964C43.3015 7.3797 43.2762 7.35976 43.256 7.33982C42.6291 6.88137 41.7598 6.90123 41.1532 7.3797C40.3445 8.01756 40.304 9.19364 41.0116 9.89124C41.2542 10.1304 41.5778 10.2899 41.9013 10.3497C42.0832 10.3795 42.2651 10.3596 42.447 10.3397C42.6291 10.3198 42.8112 10.2999 42.9932 10.3298C43.2763 10.3697 43.5392 10.4892 43.7212 10.6886C44.3278 11.2866 44.3278 12.2833 43.7212 12.8813L43.6808 12.9211C43.4178 13.1803 43.0943 13.3198 42.7506 13.3796C42.589 13.4195 42.4473 13.4792 42.3261 13.5989C42.0025 13.898 42.0025 14.4161 42.3059 14.7549C42.6294 15.0937 43.1754 15.0937 43.4989 14.7748C43.6405 14.6353 43.7214 14.4757 43.7415 14.2965C43.782 13.9776 43.964 13.6785 44.1864 13.4393L44.2066 13.4195C44.51 13.1204 44.9142 12.9809 45.3388 12.9809C45.7028 12.9809 46.0465 12.8215 46.2893 12.5224C46.6734 12.0839 46.6734 11.446 46.3094 11.0274H46.3092ZM41.517 12.9211C41.517 14.7549 40.0207 16.2298 38.1605 16.2298C36.3003 16.2298 34.8041 14.7549 34.8041 12.9211C34.8041 11.0873 36.3003 9.6123 38.1605 9.6123C40.0207 9.6123 41.517 11.0873 41.517 12.9211Z" fill="#0CEAC6"/>
</g>
<path d="M57.0514 22.5V8.5H60.3114L66.1114 18.02H64.3914L70.0314 8.5H73.2914L73.3314 22.5H69.6914L69.6514 14.04H70.2714L66.0514 21.12H64.2914L59.9514 14.04H60.7114V22.5H57.0514ZM83.1934 22.78C82.0734 22.78 81.0401 22.6 80.0934 22.24C79.1467 21.88 78.3201 21.3733 77.6134 20.72C76.9201 20.0533 76.3801 19.28 75.9934 18.4C75.6067 17.52 75.4134 16.5533 75.4134 15.5C75.4134 14.4467 75.6067 13.48 75.9934 12.6C76.3801 11.72 76.9201 10.9533 77.6134 10.3C78.3201 9.63333 79.1467 9.12 80.0934 8.76C81.0401 8.4 82.0734 8.22 83.1934 8.22C84.3267 8.22 85.3601 8.4 86.2934 8.76C87.2401 9.12 88.0601 9.63333 88.7534 10.3C89.4467 10.9533 89.9867 11.72 90.3734 12.6C90.7734 13.48 90.9734 14.4467 90.9734 15.5C90.9734 16.5533 90.7734 17.5267 90.3734 18.42C89.9867 19.3 89.4467 20.0667 88.7534 20.72C88.0601 21.3733 87.2401 21.88 86.2934 22.24C85.3601 22.6 84.3267 22.78 83.1934 22.78ZM83.1934 19.5C83.7267 19.5 84.2201 19.4067 84.6734 19.22C85.1401 19.0333 85.5401 18.7667 85.8734 18.42C86.2201 18.06 86.4867 17.6333 86.6734 17.14C86.8734 16.6467 86.9734 16.1 86.9734 15.5C86.9734 14.8867 86.8734 14.34 86.6734 13.86C86.4867 13.3667 86.2201 12.9467 85.8734 12.6C85.5401 12.24 85.1401 11.9667 84.6734 11.78C84.2201 11.5933 83.7267 11.5 83.1934 11.5C82.6601 11.5 82.1601 11.5933 81.6934 11.78C81.2401 11.9667 80.8401 12.24 80.4934 12.6C80.1601 12.9467 79.8934 13.3667 79.6934 13.86C79.5067 14.34 79.4134 14.8867 79.4134 15.5C79.4134 16.1 79.5067 16.6467 79.6934 17.14C79.8934 17.6333 80.1601 18.06 80.4934 18.42C80.8401 18.7667 81.2401 19.0333 81.6934 19.22C82.1601 19.4067 82.6601 19.5 83.1934 19.5ZM93.0475 22.5V8.5H99.4475C100.727 8.5 101.827 8.70667 102.747 9.12C103.681 9.53333 104.401 10.1333 104.907 10.92C105.414 11.6933 105.667 12.6133 105.667 13.68C105.667 14.7333 105.414 15.6467 104.907 16.42C104.401 17.18 103.681 17.7667 102.747 18.18C101.827 18.58 100.727 18.78 99.4475 18.78H95.2475L97.0075 17.12V22.5H93.0475ZM101.707 22.5L98.2275 17.4H102.447L105.947 22.5H101.707ZM97.0075 17.54L95.2475 15.72H99.2075C100.034 15.72 100.647 15.54 101.047 15.18C101.461 14.82 101.667 14.32 101.667 13.68C101.667 13.0267 101.461 12.52 101.047 12.16C100.647 11.8 100.034 11.62 99.2075 11.62H95.2475L97.0075 9.8V17.54ZM111.532 14.64H117.992V17.7H111.532V14.64ZM111.812 22.5H107.852V8.5H118.832V11.56H111.812V22.5ZM127.627 22.78C126.507 22.78 125.474 22.6 124.527 22.24C123.58 21.88 122.754 21.3733 122.047 20.72C121.354 20.0533 120.814 19.28 120.427 18.4C120.04 17.52 119.847 16.5533 119.847 15.5C119.847 14.4467 120.04 13.48 120.427 12.6C120.814 11.72 121.354 10.9533 122.047 10.3C122.754 9.63333 123.58 9.12 124.527 8.76C125.474 8.4 126.507 8.22 127.627 8.22C128.76 8.22 129.794 8.4 130.727 8.76C131.674 9.12 132.494 9.63333 133.187 10.3C133.88 10.9533 134.42 11.72 134.807 12.6C135.207 13.48 135.407 14.4467 135.407 15.5C135.407 16.5533 135.207 17.5267 134.807 18.42C134.42 19.3 133.88 20.0667 133.187 20.72C132.494 21.3733 131.674 21.88 130.727 22.24C129.794 22.6 128.76 22.78 127.627 22.78ZM127.627 19.5C128.16 19.5 128.654 19.4067 129.107 19.22C129.574 19.0333 129.974 18.7667 130.307 18.42C130.654 18.06 130.92 17.6333 131.107 17.14C131.307 16.6467 131.407 16.1 131.407 15.5C131.407 14.8867 131.307 14.34 131.107 13.86C130.92 13.3667 130.654 12.9467 130.307 12.6C129.974 12.24 129.574 11.9667 129.107 11.78C128.654 11.5933 128.16 11.5 127.627 11.5C127.094 11.5 126.594 11.5933 126.127 11.78C125.674 11.9667 125.274 12.24 124.927 12.6C124.594 12.9467 124.327 13.3667 124.127 13.86C123.94 14.34 123.847 14.8867 123.847 15.5C123.847 16.1 123.94 16.6467 124.127 17.14C124.327 17.6333 124.594 18.06 124.927 18.42C125.274 18.7667 125.674 19.0333 126.127 19.22C126.594 19.4067 127.094 19.5 127.627 19.5ZM140.266 22.5V11.64H135.966V8.5H148.506V11.64H144.226V22.5H140.266ZM153.621 13.92H160.121V16.88H153.621V13.92ZM153.901 19.44H161.221V22.5H149.981V8.5H160.961V11.56H153.901V19.44ZM170.399 22.78C169.292 22.78 168.265 22.6067 167.319 22.26C166.385 21.9 165.572 21.3933 164.879 20.74C164.199 20.0867 163.665 19.32 163.279 18.44C162.892 17.5467 162.699 16.5667 162.699 15.5C162.699 14.4333 162.892 13.46 163.279 12.58C163.665 11.6867 164.199 10.9133 164.879 10.26C165.572 9.60667 166.385 9.10667 167.319 8.76C168.265 8.4 169.292 8.22 170.399 8.22C171.692 8.22 172.845 8.44667 173.859 8.9C174.885 9.35333 175.739 10.0067 176.419 10.86L173.899 13.14C173.445 12.6067 172.945 12.2 172.399 11.92C171.865 11.64 171.265 11.5 170.599 11.5C170.025 11.5 169.499 11.5933 169.019 11.78C168.539 11.9667 168.125 12.24 167.779 12.6C167.445 12.9467 167.179 13.3667 166.979 13.86C166.792 14.3533 166.699 14.9 166.699 15.5C166.699 16.1 166.792 16.6467 166.979 17.14C167.179 17.6333 167.445 18.06 167.779 18.42C168.125 18.7667 168.539 19.0333 169.019 19.22C169.499 19.4067 170.025 19.5 170.599 19.5C171.265 19.5 171.865 19.36 172.399 19.08C172.945 18.8 173.445 18.3933 173.899 17.86L176.419 20.14C175.739 20.98 174.885 21.6333 173.859 22.1C172.845 22.5533 171.692 22.78 170.399 22.78ZM187.544 8.5H191.504V22.5H187.544V8.5ZM182.144 22.5H178.184V8.5H182.144V22.5ZM187.824 17.04H181.864V13.76H187.824V17.04Z" fill="#0A2E41"/>
<defs>
<filter id="filter0_d_722_5628" x="0.651367" y="0" width="51" height="39" filterUnits="userSpaceOnUse" color-interpolation-filters="sRGB">
<feFlood flood-opacity="0" result="BackgroundImageFix"/>
<feColorMatrix in="SourceAlpha" type="matrix" values="0 0 0 0 0 0 0 0 0 0 0 0 0 0 0 0 0 0 127 0" result="hardAlpha"/>
<feOffset dy="4"/>
<feGaussianBlur stdDeviation="2"/>
<feComposite in2="hardAlpha" operator="out"/>
<feColorMatrix type="matrix" values="0 0 0 0 0 0 0 0 0 0 0 0 0 0 0 0 0 0 0.25 0"/>
<feBlend mode="normal" in2="BackgroundImageFix" result="effect1_dropShadow_722_5628"/>
<feBlend mode="normal" in="SourceGraphic" in2="effect1_dropShadow_722_5628" result="shape"/>
</filter>
</defs>
</svg>
