<svg width="77" height="43" viewBox="0 0 77 43" fill="none" xmlns="http://www.w3.org/2000/svg">
<g filter="url(#filter0_d_722_5619)">
<path d="M29.5088 14.4261L29.5075 14.4218C29.4269 14.1487 29.3303 13.8713 29.2114 13.5946C28.8272 12.683 28.2751 11.8653 27.5779 11.1664C26.8796 10.4665 26.0624 9.91236 25.1508 9.52685L25.1498 9.52643C24.4915 9.24891 23.8028 9.06268 23.0906 8.97923C22.7856 8.94188 22.4812 8.92505 22.178 8.92505C21.1497 8.92505 20.1496 9.12772 19.2055 9.52679L19.2033 9.52771C18.6809 9.74997 18.1885 10.0265 17.7309 10.3554C17.313 10.0548 16.8645 9.79677 16.3885 9.58575L16.3885 9.58574L16.3848 9.58412L16.2662 9.53208L16.2662 9.53201L16.2549 9.52722C15.3121 9.12751 14.3091 8.92505 13.2813 8.92505C12.2529 8.92505 11.2528 9.12772 10.3087 9.52679L10.3086 9.52686C9.39696 9.91235 8.57969 10.4665 7.88147 11.1664C7.18326 11.8663 6.63064 12.6853 6.24632 13.5984L6.24631 13.5984L6.2447 13.6023C5.85322 14.5435 5.65137 15.5437 5.65137 16.5733V23.504C5.65137 24.0456 5.86836 24.5833 6.28468 24.9701L6.28556 24.9709C7.47901 26.077 8.90796 26.3023 10.089 25.7971C11.2257 25.3107 12.0243 24.1802 12.0243 22.8622V15.934C12.0243 15.9164 12.0278 15.9038 12.0306 15.897C12.0316 15.8945 12.0325 15.893 12.0329 15.8923C12.6435 15.3149 13.2031 15.2513 13.5902 15.348L13.5906 15.3481C14.1387 15.4848 14.5481 15.9866 14.5481 16.5782V23.5089C14.5481 24.0506 14.7651 24.5882 15.1814 24.975L15.1828 24.9763C16.3762 26.0808 17.8049 26.306 18.9857 25.8008C20.1228 25.3143 20.9211 24.1836 20.9211 22.8647V16.5733C20.9211 16.0565 21.2307 15.609 21.6774 15.4115C22.0877 15.2302 22.727 15.2205 23.4341 15.8851C23.4347 15.8859 23.4362 15.8882 23.438 15.8925C23.4414 15.9009 23.4449 15.9143 23.4449 15.9315V23.5015C23.4449 24.0431 23.6619 24.5808 24.0782 24.9676L24.0791 24.9684C25.2725 26.0745 26.7015 26.2999 27.8825 25.7946C29.0193 25.3082 29.8179 24.1777 29.8179 22.8597V16.5733H29.8179L29.8178 16.5655C29.8122 15.8376 29.7107 15.1218 29.5088 14.4261ZM12.0319 15.8932L12.032 15.8932L12.0319 15.8932Z" fill="url(#paint0_linear_722_5619)" stroke="white" stroke-width="2"/>
<path d="M41.968 25.4047L41.9658 25.4056C40.9285 25.8147 39.7857 26.0131 38.5485 26.0131C37.3181 26.0131 36.1819 25.8145 35.1504 25.3975C34.1293 24.9847 33.2359 24.3869 32.482 23.6112C31.7248 22.8322 31.1546 21.9128 30.7698 20.8655C30.3856 19.8221 30.1992 18.6851 30.1992 17.4678C30.1992 16.2438 30.3854 15.0938 30.7752 14.0368L31.7134 14.3828L30.7749 14.0376C31.1627 12.9833 31.7261 12.0627 32.4744 11.2924C33.222 10.5228 34.1208 9.9348 35.1618 9.5287L35.5252 10.4602L35.1609 9.52903C36.2016 9.12196 37.3353 8.92261 38.5485 8.92261C39.7766 8.92261 40.9225 9.1212 41.9676 9.53571C43.0046 9.94699 43.9087 10.5419 44.6621 11.3171L44.6633 11.3184C45.4143 12.0941 45.9847 13.0107 46.3698 14.0644C46.7532 15.1136 46.9398 16.2523 46.9398 17.4678C46.9398 18.6765 46.7531 19.8161 46.364 20.8712L41.968 25.4047ZM41.968 25.4047C42.9967 24.9963 43.8962 24.4065 44.6503 23.6279M41.968 25.4047L44.6503 23.6279M44.6503 23.6279C45.4059 22.8502 45.975 21.9283 46.3638 20.8716L44.6503 23.6279ZM39.5576 19.1957L39.5563 19.1973C39.3096 19.5119 39.0098 19.6643 38.5534 19.6643C38.2426 19.6643 38.0186 19.5868 37.8389 19.4602C37.6545 19.3303 37.4824 19.125 37.3472 18.7905C37.2098 18.4505 37.1259 18.015 37.1259 17.4678C37.1259 16.9122 37.2101 16.4735 37.3509 16.1285L36.425 15.7506L37.3509 16.1285C37.4916 15.7838 37.6641 15.5846 37.8399 15.4652C38.0293 15.3365 38.2578 15.2614 38.5559 15.2614C39.0125 15.2614 39.3138 15.4144 39.5605 15.7257C39.8172 16.0526 40.0106 16.5924 40.0106 17.4678C40.0106 18.3282 39.8184 18.8646 39.5576 19.1957Z" fill="url(#paint1_linear_722_5619)" stroke="white" stroke-width="2"/>
<path d="M65.1924 22.8498C65.1924 24.6288 66.6316 26.0749 68.4122 26.0749C70.1936 26.0749 71.6321 24.6256 71.6321 22.8498V12.17C71.6321 10.3909 70.1929 8.94482 68.4122 8.94482C66.6316 8.94482 65.1924 10.3909 65.1924 12.17V22.8498Z" fill="url(#paint2_linear_722_5619)" stroke="white" stroke-width="2"/>
<path d="M64.8946 22.7846L64.8958 22.7603V22.7359V11.4787C64.8958 10.9477 64.6852 10.4078 64.2671 10.0198L64.2665 10.0193C63.3171 9.13928 62.2143 8.79836 61.1792 8.96543C60.5242 9.07113 59.939 9.37468 59.4828 9.81046C59.3048 9.72341 59.1209 9.642 58.9306 9.56724C57.8917 9.156 56.754 8.9573 55.5305 8.9573C54.3258 8.9573 53.197 9.15384 52.1607 9.55857L52.1607 9.55857L52.1585 9.55944C51.1289 9.96441 50.2326 10.5461 49.4885 11.3123C48.7453 12.0774 48.1842 12.9932 47.7987 14.0432L48.7374 14.3878L47.799 14.0423C47.4121 15.0934 47.2257 16.2355 47.2257 17.4554C47.2257 18.6649 47.4095 19.7946 47.7915 20.8335C48.174 21.8739 48.7419 22.7881 49.4961 23.5641C49.8359 23.9137 50.2032 24.2265 50.5976 24.5022C50.2555 24.4494 49.8867 24.4625 49.5121 24.5774L49.5118 24.5775C47.1827 25.2928 46.5581 27.9839 47.9732 29.6334C49.9368 31.927 53.1915 33.1693 56.4649 33.1693C57.4635 33.1693 58.4747 33.0539 59.4642 32.814L59.4655 32.8137C59.9668 32.6915 60.4451 32.539 60.9027 32.3588L60.9383 32.3448L60.9727 32.3281C60.9924 32.3186 61.0124 32.3089 61.0326 32.2991C61.7413 31.9559 62.7538 31.4656 63.5534 30.4499C64.3921 29.3844 64.9106 27.8661 64.9106 25.6102C64.9106 25.4367 64.9068 25.0837 64.9025 24.6827C64.8943 23.9252 64.8842 22.9967 64.8946 22.7846ZM55.5305 25.9536C56.5846 25.9536 57.5718 25.8097 58.4833 25.512V26.1232C58.4833 26.4224 58.2799 26.6783 57.9963 26.7472L57.9679 26.7541L57.9399 26.7627C57.1022 27.0189 55.9106 27.1583 54.8263 27.0147C53.7154 26.8676 52.9575 26.463 52.6172 25.8741C52.5156 25.6975 52.3893 25.5307 52.2443 25.378C53.2449 25.7667 54.3441 25.9536 55.5305 25.9536ZM56.9778 17.4505L56.9778 17.453C56.9799 18.3042 56.7889 18.8371 56.531 19.1674C56.2854 19.4792 55.989 19.6296 55.5404 19.6296C55.233 19.6296 55.0107 19.5526 54.8322 19.4272C54.6521 19.3007 54.482 19.0987 54.3462 18.7649C54.2086 18.4239 54.1253 17.9934 54.1253 17.4505C54.1253 16.9007 54.2092 16.4631 54.3487 16.1187C54.4858 15.7802 54.6552 15.5843 54.8319 15.4634C55.0158 15.3376 55.2375 15.2639 55.5379 15.2639C55.9917 15.2639 56.2886 15.4157 56.529 15.7217C56.7847 16.0472 56.9778 16.5833 56.9778 17.4505Z" fill="url(#paint3_linear_722_5619)" stroke="white" stroke-width="2"/>
<path d="M68.4115 8.32078C70.203 8.32078 71.6512 6.8657 71.6512 5.07579C71.6512 3.28589 70.203 1.83081 68.4115 1.83081C66.6201 1.83081 65.1719 3.28589 65.1719 5.07579C65.1719 6.8657 66.6201 8.32078 68.4115 8.32078Z" fill="url(#paint4_linear_722_5619)" stroke="white" stroke-width="2"/>
</g>
<defs>
<filter id="filter0_d_722_5619" x="0.651367" y="0.830811" width="76" height="41.3384" filterUnits="userSpaceOnUse" color-interpolation-filters="sRGB">
<feFlood flood-opacity="0" result="BackgroundImageFix"/>
<feColorMatrix in="SourceAlpha" type="matrix" values="0 0 0 0 0 0 0 0 0 0 0 0 0 0 0 0 0 0 127 0" result="hardAlpha"/>
<feOffset dy="4"/>
<feGaussianBlur stdDeviation="2"/>
<feComposite in2="hardAlpha" operator="out"/>
<feColorMatrix type="matrix" values="0 0 0 0 0 0 0 0 0 0 0 0 0 0 0 0 0 0 0.25 0"/>
<feBlend mode="normal" in2="BackgroundImageFix" result="effect1_dropShadow_722_5619"/>
<feBlend mode="normal" in="SourceGraphic" in2="effect1_dropShadow_722_5619" result="shape"/>
</filter>
<linearGradient id="paint0_linear_722_5619" x1="17.7325" y1="25.0521" x2="17.7325" y2="9.92421" gradientUnits="userSpaceOnUse">
<stop stop-color="#5B57A6"/>
<stop offset="1" stop-color="#0CEAC6"/>
</linearGradient>
<linearGradient id="paint1_linear_722_5619" x1="38.5682" y1="25.0135" x2="38.5682" y2="9.92424" gradientUnits="userSpaceOnUse">
<stop stop-color="#5B57A6"/>
<stop offset="1" stop-color="#0CEAC6"/>
</linearGradient>
<linearGradient id="paint2_linear_722_5619" x1="68.412" y1="25.0741" x2="68.412" y2="9.94284" gradientUnits="userSpaceOnUse">
<stop stop-color="#5B57A6"/>
<stop offset="1" stop-color="#0CEAC6"/>
</linearGradient>
<linearGradient id="paint3_linear_722_5619" x1="56.065" y1="32.1642" x2="56.065" y2="9.92424" gradientUnits="userSpaceOnUse">
<stop stop-color="#5B57A6"/>
<stop offset="1" stop-color="#0CEAC6"/>
</linearGradient>
<linearGradient id="paint4_linear_722_5619" x1="68.4112" y1="7.32142" x2="68.4112" y2="2.83081" gradientUnits="userSpaceOnUse">
<stop stop-color="#5B57A6"/>
<stop offset="1" stop-color="#0CEAC6"/>
</linearGradient>
</defs>
</svg>
