<svg width="54" height="48" viewBox="0 0 54 48" fill="none" xmlns="http://www.w3.org/2000/svg">
<path d="M0.541992 22.5461V23.2442C0.541992 25.5499 2.41598 27.4239 4.72172 27.4239H14.4683C14.2754 28.1956 13.7058 30.1339 12.5575 31.4383C11.0969 33.101 9.30563 37.74 10.2977 41.7912C11.2899 45.8423 13.8161 47.4958 15.2767 46.3016C16.7373 45.1074 16.673 39.1363 19.8514 36.1508C23.039 33.1653 26.5573 27.1208 28.0822 26.2665H35.3118V2.37315H29.2673C29.2673 2.37315 27.8067 0.710449 22.7634 0.710449C22.6532 0.710449 23.039 0.728819 7.41328 0.728819C3.65612 0.728819 2.38842 5.50565 4.50124 6.93869C2.43435 8.15127 1.5984 11.0633 3.61937 12.5698C-0.101044 14.8756 0.780834 18.5317 2.54458 19.4228C1.4698 19.9372 0.541992 21.3059 0.541992 22.5461Z" fill="#E60D28" stroke="#5B57A6" stroke-miterlimit="10"/>
<path d="M53.4999 3.68866C53.4999 2.55875 52.4343 1.64014 51.1207 1.64014H41.4476C40.134 1.64014 39.0684 2.55875 39.0684 3.68866V25.8182C39.0684 26.9481 40.134 27.8667 41.4476 27.8667H51.1207C52.4343 27.8667 53.4999 26.9481 53.4999 25.8182V3.68866Z" fill="#0DEAC6"/>
<g style="mix-blend-mode:multiply" opacity="0.4">
<path d="M53.4999 14.2134V2.75825C53.4999 1.58241 52.4343 0.63623 51.1207 0.63623H41.4476C40.134 0.63623 39.0684 1.5916 39.0684 2.75825V14.2134H53.4999Z" fill="#0091E4"/>
<path d="M53.4999 14.2134V2.75825C53.4999 1.58241 52.4343 0.63623 51.1207 0.63623H41.4476C40.134 0.63623 39.0684 1.5916 39.0684 2.75825V14.2134H53.4999Z" stroke="#5B57A6" stroke-miterlimit="10"/>
</g>
<path d="M53.4999 2.76947C53.4999 1.59364 52.4343 0.647461 51.1207 0.647461H41.4476C40.134 0.647461 39.0684 1.60282 39.0684 2.76947V25.7442C39.0684 26.92 40.134 27.8662 41.4476 27.8662H51.1207C52.4343 27.8662 53.4999 26.9108 53.4999 25.7442V2.76947Z" stroke="#5B57A6" stroke-miterlimit="10"/>
<path d="M41.9531 5.81567C41.9531 4.71333 42.8442 3.82227 43.9465 3.82227C45.0489 3.82227 45.9399 4.71333 45.9399 5.81567C45.9399 6.91802 45.0489 7.80908 43.9465 7.80908C42.8442 7.80908 41.9531 6.91802 41.9531 5.81567Z" fill="#ECEFF0" stroke="#5B57A6" stroke-miterlimit="10"/>
</svg>
