<svg width="176" height="176" viewBox="0 0 176 176" fill="none" xmlns="http://www.w3.org/2000/svg">
<circle cx="87.9601" cy="87.9601" r="87.9601" fill="#5B57A6"/>
<mask id="mask0_722_30835" style="mask-type:luminance" maskUnits="userSpaceOnUse" x="7" y="7" width="161" height="162">
<path d="M167.924 7.99634H7.99609V168.812H167.924V7.99634Z" fill="white"/>
</mask>
<g mask="url(#mask0_722_30835)">
<path d="M88.0275 7.82812C43.8174 7.82812 7.99609 43.7043 7.99609 87.9821C7.99609 132.26 43.8174 168.136 88.0275 168.136C132.238 168.136 168.059 132.226 168.059 87.9821C168.093 43.7043 132.238 7.82812 88.0275 7.82812ZM88.0275 35.9802L135.383 65.5552H40.6716L88.0275 35.9802ZM135.992 112.814C135.992 117.557 132.136 121.419 127.401 121.419H48.6545C43.9189 121.419 40.0628 117.557 40.0628 112.814V67.4524C40.0628 66.9442 40.1304 66.4699 40.1981 65.9956L85.4568 94.2494C85.5244 94.2833 85.5583 94.3171 85.6259 94.351C85.6936 94.3849 85.7612 94.4188 85.795 94.4526C86.0995 94.622 86.4377 94.7575 86.776 94.8253C86.8098 94.8253 86.8436 94.8253 86.8774 94.8592C87.2495 94.9608 87.6216 94.9947 87.9937 94.9947C88.3658 94.9947 88.7379 94.9269 89.1099 94.8592C89.1438 94.8592 89.1776 94.8592 89.2114 94.8253C89.5497 94.7237 89.8879 94.622 90.1924 94.4526C90.26 94.4188 90.3277 94.3849 90.3615 94.351C90.4291 94.3171 90.463 94.2833 90.5306 94.2494L135.789 65.9956C135.857 66.4699 135.925 66.9781 135.925 67.4524V112.814H135.992Z" fill="white"/>
</g>
</svg>
