<svg width="219" height="70" viewBox="0 0 219 70" fill="none" xmlns="http://www.w3.org/2000/svg">
<g filter="url(#filter0_d_722_5647)">
<path d="M200.763 2H17.934C11.3464 2 6 6.969 6 13.0915V48.6731C6 54.7956 11.3464 59.7646 17.934 59.7646H200.763C207.351 59.7646 212.697 54.7956 212.697 48.6731V13.0915C212.697 6.969 207.351 2 200.763 2Z" fill="#191919"/>
<path d="M200.763 1H17.934C10.8644 1 5 6.34903 5 13.0915V48.6731C5 55.4156 10.8644 60.7646 17.934 60.7646H200.763C207.833 60.7646 213.697 55.4156 213.697 48.6731V13.0915C213.697 6.34903 207.833 1 200.763 1Z" stroke="white" stroke-width="2"/>
</g>
<path d="M52.7435 25.5849L47.1871 30.7137L30.8613 15.2565C31.6824 14.7951 32.7517 14.7241 33.6873 15.2388L52.7435 25.5849Z" fill="#00F076"/>
<path d="M52.8771 36.1263L33.6681 46.5434C32.5225 47.1646 31.1859 46.9161 30.3457 46.1708L47.1679 30.7136L52.8771 36.1263Z" fill="#F73448"/>
<path d="M58.4136 33.1091L52.9144 36.0905L52.8762 36.1083L47.167 30.6956L52.7235 25.5669L52.7617 25.5846L58.3945 28.637C60.2658 29.6486 60.2658 32.1153 58.4136 33.1091Z" fill="#FFCA00"/>
<path d="M30.3456 46.171C30.3265 46.1532 30.3265 46.1532 30.3074 46.1355C29.8109 45.6741 29.4863 45.0529 29.4863 44.3076V17.475C29.4863 16.5167 30.021 15.7358 30.7847 15.2922C30.8038 15.2922 30.8038 15.2744 30.8229 15.2744L47.1487 30.7316L30.3456 46.171Z" fill="#00D2FF"/>
<path d="M91.2365 34.5471H89.0215H83.255V36.6056H88.8497C88.1814 38.8949 85.9282 40.5808 83.255 40.5808C80.0471 40.5808 77.4503 38.1673 77.4503 35.1859C77.4503 32.2045 80.0471 29.791 83.255 29.791C84.7635 29.791 86.1574 30.3234 87.1885 31.2107L88.7542 29.7555C87.3221 28.4955 85.3936 27.7324 83.255 27.7324C78.8251 27.7324 75.2354 31.0688 75.2354 35.1859C75.2354 39.3031 78.8251 42.6394 83.255 42.6394C87.6849 42.6394 91.2747 39.3031 91.2747 35.1859C91.2556 34.973 91.2556 34.76 91.2365 34.5471Z" fill="white"/>
<path d="M97.5372 33.0034C94.7112 33.0034 92.4199 35.1507 92.4199 37.795C92.4199 40.4392 94.7112 42.5865 97.5372 42.5865C100.363 42.5865 102.655 40.4392 102.655 37.795C102.674 35.1507 100.363 33.0034 97.5372 33.0034ZM97.5372 40.6876C95.9906 40.6876 94.7303 39.4276 94.7303 37.8659C94.7303 36.3043 95.9906 35.0443 97.5372 35.0443C99.0839 35.0443 100.344 36.3043 100.344 37.8659C100.344 39.4276 99.0839 40.6876 97.5372 40.6876Z" fill="white"/>
<path d="M108.955 33.0034C106.129 33.0034 103.838 35.1507 103.838 37.795C103.838 40.4392 106.129 42.5865 108.955 42.5865C111.781 42.5865 114.072 40.4392 114.072 37.795C114.072 35.1507 111.781 33.0034 108.955 33.0034ZM108.955 40.6876C107.409 40.6876 106.148 39.4276 106.148 37.8659C106.148 36.3043 107.409 35.0443 108.955 35.0443C110.502 35.0443 111.762 36.3043 111.762 37.8659C111.743 39.4276 110.502 40.6876 108.955 40.6876Z" fill="white"/>
<path d="M128.09 27.7324H125.875V42.7814H128.09V27.7324Z" fill="white"/>
<path d="M137.178 39.0374C136.853 39.6763 136.28 40.1554 135.574 40.4216C134.829 40.6878 134.008 40.6878 133.263 40.3861C132.786 40.1909 132.385 39.907 132.08 39.5343L139.603 36.8013L139.488 36.4464C139.45 36.3044 139.393 36.1802 139.335 36.056C138.82 34.8492 137.846 33.8909 136.567 33.3763C135.287 32.8616 133.874 32.8261 132.557 33.3053C131.259 33.7844 130.227 34.6895 129.674 35.8785C129.12 37.0675 129.082 38.3808 129.597 39.6053C130.113 40.812 131.087 41.7703 132.366 42.285C133.034 42.5512 133.741 42.6932 134.466 42.6932C135.116 42.6932 135.765 42.5867 136.376 42.356C137.617 41.8946 138.629 41.0427 139.202 39.907L139.393 39.5165L137.369 38.7002L137.178 39.0374ZM136.49 35.7188L131.469 37.5467C131.507 37.245 131.583 36.9611 131.717 36.6771C132.041 35.985 132.633 35.4704 133.378 35.1864C133.741 35.0622 134.104 34.9912 134.466 34.9912C135.211 34.9912 135.937 35.2397 136.49 35.7188Z" fill="white"/>
<path d="M122.513 33.0035V33.8553C121.769 33.3229 120.852 33.0035 119.878 33.0035C117.32 33.0035 115.238 35.1508 115.238 37.795C115.238 40.4393 117.32 42.5866 119.878 42.5866C120.852 42.5866 121.769 42.2671 122.513 41.7348V42.764C122.513 43.3497 122.055 45.0001 119.974 45.0001C117.892 45.0001 117.3 43.2609 117.3 43.2609L115.296 44.1305C115.296 44.1305 116.059 46.8635 120.184 46.8635C122.418 46.8635 123.563 45.6567 124.155 44.5564C124.556 43.8111 124.747 42.977 124.747 42.1429V32.968H122.513V33.0035ZM119.878 40.6877C118.465 40.6877 117.339 39.4277 117.339 37.866C117.339 36.3043 118.484 35.0443 119.878 35.0443C121.291 35.0443 122.418 36.3043 122.418 37.866C122.418 39.4277 121.272 40.6877 119.878 40.6877Z" fill="white"/>
<path d="M149.476 27.7324H147.261V42.7814H149.476V27.7324Z" fill="white"/>
<path d="M152.569 27.7324V29.791C154.116 29.791 155.376 31.051 155.376 32.6127C155.376 34.1744 154.116 35.4344 152.569 35.4344V37.3155C155.395 37.3155 157.687 35.1682 157.687 32.524C157.706 29.8797 155.414 27.7324 152.569 27.7324Z" fill="white"/>
<path d="M152.589 27.7324H148.865V29.791H152.589V27.7324Z" fill="white"/>
<path d="M152.589 35.417H148.865V37.3159H152.589V35.417Z" fill="white"/>
<path d="M161.066 27.7324H158.851V42.7814H161.066V27.7324Z" fill="white"/>
<path d="M168.302 41.4688L168.569 41.2026V42.6401H170.441V36.4288C170.441 35.8432 170.364 35.3463 170.212 34.9204C170.059 34.5122 169.83 34.175 169.524 33.9266C169.219 33.6604 168.799 33.4652 168.302 33.341C167.806 33.2167 167.175 33.1458 166.469 33.1458C166.068 33.1458 165.667 33.1812 165.304 33.2345C164.922 33.2877 164.579 33.3765 164.254 33.4652C163.968 33.5539 163.719 33.6427 163.509 33.7314L163.624 35.3641C163.758 35.2931 163.91 35.2398 164.082 35.1688C164.35 35.0624 164.674 34.9559 165.018 34.8672C165.381 34.7784 165.782 34.7252 166.24 34.7252C166.584 34.7252 166.889 34.7607 167.137 34.8317C167.386 34.9026 167.596 35.0269 167.748 35.1688C167.901 35.3286 168.016 35.506 168.073 35.7367C168.13 35.9497 168.168 36.1981 168.168 36.4821V37.1564H167.099C166.278 37.1564 165.552 37.2097 164.941 37.3339C164.33 37.4404 163.815 37.6179 163.414 37.8486C163.013 38.0793 162.707 38.3632 162.516 38.7181C162.326 39.0731 162.211 39.4812 162.211 39.9604C162.211 40.404 162.287 40.7945 162.44 41.1316C162.593 41.4511 162.822 41.735 163.108 41.9657C163.395 42.1964 163.738 42.3562 164.139 42.4804C164.54 42.5869 164.98 42.6578 165.457 42.6578C166.03 42.6578 166.564 42.5514 167.023 42.3561C167.5 42.1254 167.939 41.8415 168.302 41.4688ZM167.137 40.9187C166.813 41.1139 166.431 41.2026 166.03 41.2026C165.552 41.2026 165.171 41.0784 164.903 40.8477C164.617 40.617 164.483 40.2798 164.483 39.8894C164.483 39.6587 164.54 39.4457 164.636 39.2505C164.731 39.0553 164.884 38.8956 165.094 38.7714C165.304 38.6471 165.572 38.5407 165.877 38.4874C166.183 38.4342 166.564 38.3987 167.004 38.3987H168.168V40.0846L168.13 40.1201C167.787 40.475 167.462 40.7412 167.137 40.9187Z" fill="white"/>
<path d="M179.225 33.1633L177.602 36.6416L176.609 38.7712L175.94 37.3337L173.993 33.1633H171.587L174.737 39.9247L175.425 41.4332L173.611 45.5681H176.017L177.602 41.8236L178.805 39.2326L181.631 33.1633H179.225Z" fill="white"/>
<path d="M88.6585 22.1243C88.6585 22.1775 88.6585 22.213 88.6395 22.2485C88.6395 22.284 88.6204 22.3195 88.6013 22.355C88.5822 22.3905 88.5631 22.4082 88.544 22.4082C88.5249 22.426 88.4867 22.426 88.4676 22.426H84.706C84.6296 22.426 84.5532 22.4082 84.4769 22.355C84.4005 22.3018 84.3623 22.213 84.3623 22.0711V15.3452C84.3623 15.2032 84.4005 15.1145 84.4769 15.0612C84.5532 15.008 84.6296 14.9902 84.706 14.9902H88.4103C88.4485 14.9902 88.4676 14.9902 88.4867 15.008C88.5058 15.0257 88.5249 15.0435 88.544 15.0612C88.5631 15.0967 88.5822 15.1145 88.5822 15.1677C88.5822 15.2032 88.6013 15.2564 88.6013 15.3097C88.6013 15.3629 88.6013 15.3984 88.5822 15.4339C88.5822 15.4694 88.5631 15.5049 88.544 15.5226C88.5249 15.5404 88.5058 15.5581 88.4867 15.5759C88.4676 15.5936 88.4294 15.5936 88.4103 15.5936H85.1261V18.2201H87.9711C88.0093 18.2201 88.0284 18.2201 88.0666 18.2378C88.0857 18.2556 88.1048 18.2733 88.1239 18.2911C88.143 18.3088 88.1621 18.3443 88.1621 18.3976C88.1621 18.433 88.1812 18.4863 88.1812 18.5395C88.1812 18.5928 88.1812 18.6283 88.1621 18.6637C88.1621 18.6992 88.143 18.7347 88.1239 18.7525C88.1048 18.7702 88.0857 18.788 88.0666 18.8057C88.0475 18.8235 88.0093 18.8235 87.9711 18.8235H85.1261V21.7871H88.4676C88.5058 21.7871 88.5249 21.7871 88.544 21.8049C88.5631 21.8226 88.5822 21.8404 88.6013 21.8581C88.6204 21.8759 88.6395 21.9113 88.6395 21.9646C88.6585 22.0178 88.6585 22.0711 88.6585 22.1243Z" fill="white"/>
<path d="M95.4182 15.3097C95.4182 15.363 95.4182 15.3985 95.3991 15.434C95.3991 15.4695 95.38 15.505 95.3609 15.5227C95.3418 15.5404 95.3227 15.5582 95.3036 15.5759C95.2845 15.5937 95.2463 15.5937 95.2272 15.5937H92.8404V22.3018C92.8404 22.3196 92.8404 22.3373 92.8214 22.3728C92.8023 22.3906 92.7832 22.4083 92.7641 22.4261C92.7259 22.4438 92.6877 22.4438 92.6495 22.4616C92.5922 22.4616 92.5349 22.4793 92.4776 22.4793C92.4013 22.4793 92.344 22.4793 92.3058 22.4616C92.2485 22.4616 92.2103 22.4438 92.1912 22.4261C92.153 22.4083 92.134 22.3906 92.134 22.3728C92.1149 22.3551 92.1149 22.3373 92.1149 22.3018V15.6114H89.7281C89.6899 15.6114 89.6708 15.6114 89.6517 15.5937C89.6326 15.5759 89.6135 15.5582 89.5944 15.5404C89.5753 15.5227 89.5562 15.4872 89.5562 15.4517C89.5562 15.4162 89.5371 15.363 89.5371 15.3275C89.5371 15.2743 89.5371 15.221 89.5562 15.1855C89.5562 15.15 89.5753 15.1145 89.5944 15.079C89.6135 15.0435 89.6326 15.0258 89.6517 15.0258C89.6708 15.0081 89.709 15.0081 89.7281 15.0081H95.2654C95.3036 15.0081 95.3227 15.0081 95.3418 15.0258C95.3609 15.0435 95.38 15.0613 95.3991 15.079C95.4182 15.1145 95.4373 15.1323 95.4373 15.1855C95.4182 15.2033 95.4182 15.2565 95.4182 15.3097Z" fill="white"/>
<path d="M100.325 22.3202C100.325 22.3379 100.325 22.3557 100.306 22.3912C100.287 22.4267 100.267 22.4267 100.248 22.4444C100.21 22.4622 100.172 22.4622 100.134 22.4799C100.096 22.4799 100.019 22.4976 99.9429 22.4976C99.8665 22.4976 99.8092 22.4976 99.771 22.4799C99.7137 22.4799 99.6755 22.4622 99.6565 22.4444C99.6183 22.4267 99.5992 22.4089 99.5992 22.3912C99.5992 22.3734 99.5801 22.3557 99.5801 22.3202V15.0974C99.5801 15.0796 99.5801 15.0619 99.5992 15.0264C99.6183 15.0087 99.6374 14.9909 99.6756 14.9732C99.7137 14.9554 99.7519 14.9554 99.7901 14.9377C99.8283 14.9377 99.8856 14.9199 99.962 14.9199C100.038 14.9199 100.096 14.9199 100.153 14.9377C100.191 14.9377 100.229 14.9554 100.267 14.9732C100.306 14.9909 100.325 15.0087 100.325 15.0264C100.325 15.0441 100.344 15.0619 100.344 15.0974V22.3202H100.325Z" fill="white"/>
<path d="M107.524 15.3097C107.524 15.363 107.524 15.3985 107.505 15.434C107.505 15.4695 107.485 15.505 107.466 15.5227C107.447 15.5404 107.428 15.5582 107.409 15.5759C107.39 15.5937 107.352 15.5937 107.333 15.5937H104.946V22.3018C104.946 22.3196 104.946 22.3373 104.927 22.3728C104.908 22.4083 104.889 22.4083 104.87 22.4261C104.831 22.4438 104.793 22.4438 104.755 22.4616C104.698 22.4616 104.64 22.4793 104.583 22.4793C104.507 22.4793 104.449 22.4793 104.411 22.4616C104.354 22.4616 104.316 22.4438 104.297 22.4261C104.259 22.4083 104.239 22.3906 104.239 22.3728C104.22 22.3551 104.22 22.3373 104.22 22.3018V15.6114H101.834C101.795 15.6114 101.776 15.6114 101.757 15.5937C101.738 15.5759 101.719 15.5582 101.7 15.5404C101.681 15.5227 101.662 15.4872 101.662 15.4517C101.662 15.4162 101.643 15.363 101.643 15.3275C101.643 15.2743 101.643 15.221 101.662 15.1855C101.662 15.15 101.681 15.1145 101.7 15.079C101.719 15.0435 101.738 15.0258 101.757 15.0258C101.776 15.0081 101.814 15.0081 101.834 15.0081H107.371C107.409 15.0081 107.428 15.0081 107.447 15.0258C107.466 15.0435 107.485 15.0613 107.505 15.079C107.524 15.1145 107.543 15.1323 107.543 15.1855C107.524 15.2033 107.524 15.2565 107.524 15.3097Z" fill="white"/>
<path d="M118.121 18.6287C118.121 19.2321 118.045 19.7645 117.892 20.2436C117.739 20.7228 117.529 21.1309 117.224 21.4681C116.937 21.8053 116.556 22.0715 116.116 22.249C115.677 22.4264 115.143 22.5329 114.551 22.5329C113.959 22.5329 113.443 22.4442 113.023 22.2667C112.603 22.0893 112.24 21.8408 111.973 21.5214C111.706 21.2019 111.496 20.7938 111.362 20.3324C111.228 19.871 111.171 19.3386 111.171 18.7529C111.171 18.1673 111.247 17.6349 111.381 17.1557C111.534 16.6766 111.744 16.2684 112.049 15.9312C112.336 15.5941 112.718 15.3279 113.157 15.1504C113.596 14.9729 114.131 14.8665 114.722 14.8665C115.314 14.8665 115.811 14.9552 116.231 15.1327C116.651 15.3101 117.014 15.5586 117.281 15.878C117.568 16.1974 117.758 16.5879 117.892 17.0493C118.045 17.5284 118.121 18.0431 118.121 18.6287ZM117.319 18.6819C117.319 18.2383 117.281 17.8301 117.186 17.4397C117.09 17.0493 116.957 16.7121 116.746 16.4281C116.536 16.1442 116.269 15.9135 115.925 15.7538C115.582 15.5941 115.162 15.5053 114.665 15.5053C114.169 15.5053 113.749 15.5941 113.405 15.7538C113.061 15.9312 112.794 16.1619 112.584 16.4459C112.374 16.7298 112.221 17.067 112.126 17.4574C112.03 17.8479 111.992 18.2383 111.992 18.6642C111.992 19.1256 112.03 19.5338 112.126 19.9242C112.202 20.3146 112.355 20.6518 112.565 20.9357C112.775 21.2197 113.042 21.4504 113.386 21.6101C113.73 21.7698 114.15 21.8586 114.665 21.8586C115.162 21.8586 115.601 21.7698 115.945 21.5924C116.288 21.4149 116.556 21.1842 116.766 20.8825C116.976 20.5808 117.128 20.2436 117.224 19.8709C117.262 19.516 117.319 19.1079 117.319 18.6819Z" fill="white"/>
<path d="M125.74 22.0894C125.74 22.1604 125.721 22.2136 125.702 22.2669C125.683 22.3201 125.645 22.3556 125.606 22.3733C125.568 22.4088 125.53 22.4266 125.492 22.4266C125.454 22.4443 125.415 22.4443 125.377 22.4443H125.225C125.148 22.4443 125.072 22.4266 124.995 22.4088C124.919 22.3911 124.862 22.3556 124.804 22.3023C124.747 22.2491 124.671 22.1959 124.613 22.1071C124.556 22.0184 124.48 21.9297 124.403 21.7877L121.577 17.1381C121.444 16.9074 121.291 16.6767 121.157 16.446C121.024 16.1976 120.871 15.9669 120.756 15.7539C120.756 16.0379 120.756 16.3218 120.756 16.6235C120.756 16.9252 120.756 17.2091 120.756 17.4931V22.3201C120.756 22.3378 120.756 22.3556 120.737 22.3911C120.718 22.4088 120.699 22.4266 120.68 22.4443C120.642 22.4621 120.604 22.4621 120.565 22.4798C120.527 22.4798 120.451 22.4976 120.375 22.4976C120.298 22.4976 120.241 22.4976 120.203 22.4798C120.145 22.4798 120.107 22.4621 120.088 22.4443C120.05 22.4266 120.031 22.4088 120.031 22.3911C120.012 22.3733 120.012 22.3556 120.012 22.3201V15.3457C120.012 15.2038 120.05 15.115 120.126 15.0618C120.203 15.0086 120.279 14.9908 120.355 14.9908H120.661C120.756 14.9908 120.852 14.9908 120.909 15.0086C120.966 15.0263 121.043 15.0441 121.081 15.0795C121.138 15.115 121.196 15.1683 121.234 15.2393C121.291 15.3103 121.348 15.399 121.406 15.4877L123.563 19.0547C123.697 19.2855 123.831 19.4984 123.945 19.6936C124.06 19.9066 124.193 20.1018 124.308 20.297C124.423 20.4922 124.537 20.6874 124.652 20.8826C124.766 21.0778 124.881 21.2731 124.995 21.4683C124.995 21.1488 124.995 20.8116 124.995 20.4567C124.995 20.1018 124.995 19.7646 124.995 19.4452V15.115C124.995 15.0973 124.995 15.0795 125.014 15.0441C125.034 15.0263 125.053 15.0086 125.072 14.9908C125.11 14.9731 125.148 14.9731 125.186 14.9553C125.225 14.9553 125.301 14.9553 125.377 14.9553C125.435 14.9553 125.492 14.9553 125.549 14.9553C125.606 14.9553 125.645 14.9731 125.664 14.9908C125.702 15.0086 125.721 15.0263 125.721 15.0441C125.74 15.0618 125.74 15.0795 125.74 15.115V22.0894Z" fill="white"/>
<path d="M75.2354 18.6997C75.2354 20.7051 76.992 22.3377 79.1497 22.3377C81.3074 22.3377 83.0641 20.7051 83.0641 18.6997C83.0641 18.6465 83.0641 18.5932 83.0641 18.54H79.3216V19.2498H82.243L82.1857 19.4628C81.8038 20.7406 80.5627 21.6279 79.1306 21.6279C77.393 21.6279 75.9609 20.3146 75.9609 18.682C75.9609 17.067 77.3739 15.7361 79.1306 15.7361C79.8562 15.7361 80.5627 15.9668 81.1355 16.4104L81.6702 15.9135C80.9637 15.3456 80.0662 15.0439 79.1306 15.0439C76.992 15.0617 75.2354 16.6944 75.2354 18.6997Z" fill="white"/>
<defs>
<filter id="filter0_d_722_5647" x="0" y="0" width="218.697" height="69.7646" filterUnits="userSpaceOnUse" color-interpolation-filters="sRGB">
<feFlood flood-opacity="0" result="BackgroundImageFix"/>
<feColorMatrix in="SourceAlpha" type="matrix" values="0 0 0 0 0 0 0 0 0 0 0 0 0 0 0 0 0 0 127 0" result="hardAlpha"/>
<feOffset dy="4"/>
<feGaussianBlur stdDeviation="2"/>
<feComposite in2="hardAlpha" operator="out"/>
<feColorMatrix type="matrix" values="0 0 0 0 0 0 0 0 0 0 0 0 0 0 0 0 0 0 0.25 0"/>
<feBlend mode="normal" in2="BackgroundImageFix" result="effect1_dropShadow_722_5647"/>
<feBlend mode="normal" in="SourceGraphic" in2="effect1_dropShadow_722_5647" result="shape"/>
</filter>
</defs>
</svg>
