<svg width="51" height="46" viewBox="0 0 51 46" fill="none" xmlns="http://www.w3.org/2000/svg">
<path fill-rule="evenodd" clip-rule="evenodd" d="M11.1736 23L26.4273 7.866C27.3082 7.038 27.8182 5.888 27.8182 4.6C27.8182 2.07 25.7318 0 23.1818 0C21.8836 0 20.7245 0.506 19.89 1.334L1.34455 19.734C0.51 20.562 0 21.712 0 23C0 24.288 0.51 25.438 1.34455 26.266L19.89 44.666C20.7245 45.494 21.8836 46 23.1818 46C25.7318 46 27.8182 43.93 27.8182 41.4C27.8182 40.112 27.3082 38.962 26.4736 38.134L11.1736 23ZM34.3555 23L49.6091 7.866C50.49 7.038 51 5.888 51 4.6C51 2.07 48.9136 0 46.3636 0C45.0655 0 43.9064 0.506 43.0718 1.334L24.5264 19.734C23.6918 20.562 23.1818 21.712 23.1818 23C23.1818 24.288 23.6918 25.438 24.5264 26.266L43.0718 44.666C43.9064 45.494 45.0655 46 46.3636 46C48.9136 46 51 43.93 51 41.4C51 40.112 50.49 38.962 49.6555 38.134L34.3555 23Z" fill="#5B57A6"/>
</svg>
