<svg width="54" height="48" viewBox="0 0 54 48" fill="none" xmlns="http://www.w3.org/2000/svg">
<path d="M53.4583 25.1354V24.4372C53.4583 22.1315 51.5843 20.2575 49.2785 20.2575H39.532C39.7249 19.4859 40.2944 17.5476 41.4427 16.2431C42.9033 14.5804 44.6946 9.9414 43.7025 5.89028C42.7104 1.83917 40.1842 0.185646 38.7236 1.37985C37.263 2.57406 37.3273 8.5451 34.1489 11.5306C30.9612 14.5161 27.4429 20.5607 25.918 21.415H18.6885V45.3083H24.733C24.733 45.3083 26.1936 46.971 31.2368 46.971C31.3471 46.971 30.9612 46.9526 46.587 46.9526C50.3441 46.9526 51.6118 42.1758 49.499 40.7427C51.5659 39.5302 52.4018 36.6181 50.3809 35.1116C54.1013 32.8059 53.2194 29.1498 51.4557 28.2587C52.5305 27.7443 53.4583 26.3755 53.4583 25.1354Z" fill="#0DEAC6" stroke="#5B57A6" stroke-miterlimit="10"/>
<path d="M0.5 43.995C0.5 45.1249 1.5656 46.0435 2.87923 46.0435H12.5523C13.8659 46.0435 14.9315 45.1249 14.9315 43.995V21.8654C14.9315 20.7355 13.8659 19.8169 12.5523 19.8169H2.87923C1.5656 19.8169 0.5 20.7355 0.5 21.8654V43.995Z" fill="#0DEAC6"/>
<g style="mix-blend-mode:multiply" opacity="0.4">
<path d="M0.5 33.4658V44.921C0.5 46.0969 1.5656 47.043 2.87923 47.043H12.5523C13.8659 47.043 14.9315 46.0877 14.9315 44.921V33.4658H0.5Z" fill="#0091E4"/>
<path d="M0.5 33.4658V44.921C0.5 46.0969 1.5656 47.043 2.87923 47.043H12.5523C13.8659 47.043 14.9315 46.0877 14.9315 44.921V33.4658H0.5Z" stroke="#5B57A6" stroke-miterlimit="10"/>
</g>
<path d="M0.5 44.9248C0.5 46.1007 1.5656 47.0468 2.87923 47.0468H12.5523C13.8659 47.0468 14.9315 46.0915 14.9315 44.9248V21.9501C14.9315 20.7743 13.8659 19.8281 12.5523 19.8281H2.87923C1.5656 19.8281 0.5 20.7835 0.5 21.9501V44.9248Z" stroke="#5B57A6" stroke-miterlimit="10"/>
<path d="M12.0474 41.8616C12.0474 42.9639 11.1563 43.855 10.054 43.855C8.95161 43.855 8.06055 42.9639 8.06055 41.8616C8.06055 40.7592 8.95161 39.8682 10.054 39.8682C11.1563 39.8682 12.0474 40.7592 12.0474 41.8616Z" fill="#ECEFF0" stroke="#5B57A6" stroke-miterlimit="10"/>
</svg>
