<svg width="51" height="46" viewBox="0 0 51 46" fill="none" xmlns="http://www.w3.org/2000/svg">
<path fill-rule="evenodd" clip-rule="evenodd" d="M27.8182 23C27.8182 21.712 27.3082 20.562 26.4736 19.734L7.92818 1.334C7.09364 0.506 5.93455 0 4.63636 0C2.08636 0 0 2.07 0 4.6C0 5.888 0.51 7.038 1.34455 7.866L16.6445 23L1.39091 38.134C0.51 38.962 0 40.112 0 41.4C0 43.93 2.08636 46 4.63636 46C5.93455 46 7.09364 45.494 7.92818 44.666L26.4736 26.266C27.3082 25.438 27.8182 24.288 27.8182 23ZM49.6555 19.734L31.11 1.334C30.2755 0.506 29.1164 0 27.8182 0C25.2682 0 23.1818 2.07 23.1818 4.6C23.1818 5.888 23.6918 7.038 24.5264 7.866L39.8264 23L24.5727 38.134C23.6918 38.962 23.1818 40.112 23.1818 41.4C23.1818 43.93 25.2682 46 27.8182 46C29.1164 46 30.2755 45.494 31.11 44.666L49.6555 26.266C50.49 25.438 51 24.288 51 23C51 21.712 50.49 20.562 49.6555 19.734Z" fill="#0CEAC6"/>
</svg>
