<svg width="269" height="301" viewBox="0 0 269 301" fill="none" xmlns="http://www.w3.org/2000/svg">
<circle cx="134.5" cy="105.5" r="99" fill="#5B57A6" stroke="#0CEAC6" stroke-width="13"/>
<path d="M66.1105 248.72C67.6038 248.987 68.8705 249.773 69.9105 251.08C70.9505 252.387 71.4705 253.867 71.4705 255.52C71.4705 256.933 71.0971 258.213 70.3505 259.36C69.6305 260.48 68.5771 261.373 67.1905 262.04C65.8038 262.68 64.1905 263 62.3505 263H51.2305V235.2H61.8305C63.7238 235.2 65.3505 235.52 66.7105 236.16C68.0705 236.8 69.0971 237.667 69.7905 238.76C70.4838 239.827 70.8305 241.027 70.8305 242.36C70.8305 243.96 70.4038 245.293 69.5505 246.36C68.6971 247.427 67.5505 248.213 66.1105 248.72ZM55.7905 246.88H61.4305C62.9238 246.88 64.0838 246.547 64.9105 245.88C65.7638 245.187 66.1905 244.2 66.1905 242.92C66.1905 241.667 65.7638 240.693 64.9105 240C64.0838 239.28 62.9238 238.92 61.4305 238.92H55.7905V246.88ZM61.9505 259.28C63.4971 259.28 64.7105 258.907 65.5905 258.16C66.4705 257.413 66.9105 256.373 66.9105 255.04C66.9105 253.68 66.4438 252.6 65.5105 251.8C64.5771 251 63.3371 250.6 61.7905 250.6H55.7905V259.28H61.9505ZM96.6258 251.44C96.6258 252.267 96.5724 253.013 96.4658 253.68H79.6258C79.7591 255.44 80.4124 256.853 81.5858 257.92C82.7591 258.987 84.1991 259.52 85.9058 259.52C88.3591 259.52 90.0924 258.493 91.1058 256.44H96.0258C95.3591 258.467 94.1458 260.133 92.3858 261.44C90.6524 262.72 88.4924 263.36 85.9058 263.36C83.7991 263.36 81.9058 262.893 80.2258 261.96C78.5724 261 77.2658 259.667 76.3058 257.96C75.3724 256.227 74.9058 254.227 74.9058 251.96C74.9058 249.693 75.3591 247.707 76.2658 246C77.1991 244.267 78.4924 242.933 80.1458 242C81.8258 241.067 83.7458 240.6 85.9058 240.6C87.9858 240.6 89.8391 241.053 91.4658 241.96C93.0924 242.867 94.3591 244.147 95.2658 245.8C96.1724 247.427 96.6258 249.307 96.6258 251.44ZM91.8658 250C91.8391 248.32 91.2391 246.973 90.0658 245.96C88.8924 244.947 87.4391 244.44 85.7058 244.44C84.1324 244.44 82.7858 244.947 81.6658 245.96C80.5458 246.947 79.8791 248.293 79.6658 250H91.8658ZM105.673 244.16C106.34 243.04 107.22 242.173 108.313 241.56C109.433 240.92 110.753 240.6 112.273 240.6V245.32H111.113C109.327 245.32 107.967 245.773 107.033 246.68C106.127 247.587 105.673 249.16 105.673 251.4V263H101.113V240.96H105.673V244.16ZM114.945 251.88C114.945 249.667 115.398 247.707 116.305 246C117.238 244.293 118.492 242.973 120.065 242.04C121.665 241.08 123.425 240.6 125.345 240.6C127.078 240.6 128.585 240.947 129.865 241.64C131.172 242.307 132.212 243.147 132.985 244.16V240.96H137.585V263H132.985V259.72C132.212 260.76 131.158 261.627 129.825 262.32C128.492 263.013 126.972 263.36 125.265 263.36C123.372 263.36 121.638 262.88 120.065 261.92C118.492 260.933 117.238 259.573 116.305 257.84C115.398 256.08 114.945 254.093 114.945 251.88ZM132.985 251.96C132.985 250.44 132.665 249.12 132.025 248C131.412 246.88 130.598 246.027 129.585 245.44C128.572 244.853 127.478 244.56 126.305 244.56C125.132 244.56 124.038 244.853 123.025 245.44C122.012 246 121.185 246.84 120.545 247.96C119.932 249.053 119.625 250.36 119.625 251.88C119.625 253.4 119.932 254.733 120.545 255.88C121.185 257.027 122.012 257.907 123.025 258.52C124.065 259.107 125.158 259.4 126.305 259.4C127.478 259.4 128.572 259.107 129.585 258.52C130.598 257.933 131.412 257.08 132.025 255.96C132.665 254.813 132.985 253.48 132.985 251.96ZM154.694 240.6C156.428 240.6 157.974 240.96 159.334 241.68C160.721 242.4 161.801 243.467 162.574 244.88C163.348 246.293 163.734 248 163.734 250V263H159.214V250.68C159.214 248.707 158.721 247.2 157.734 246.16C156.748 245.093 155.401 244.56 153.694 244.56C151.988 244.56 150.628 245.093 149.614 246.16C148.628 247.2 148.134 248.707 148.134 250.68V263H143.574V240.96H148.134V243.48C148.881 242.573 149.828 241.867 150.974 241.36C152.148 240.853 153.388 240.6 154.694 240.6ZM168.031 251.88C168.031 249.667 168.484 247.707 169.391 246C170.324 244.293 171.577 242.973 173.151 242.04C174.751 241.08 176.524 240.6 178.471 240.6C179.911 240.6 181.324 240.92 182.711 241.56C184.124 242.173 185.244 243 186.071 244.04V233.4H190.671V263H186.071V259.68C185.324 260.747 184.284 261.627 182.951 262.32C181.644 263.013 180.137 263.36 178.431 263.36C176.511 263.36 174.751 262.88 173.151 261.92C171.577 260.933 170.324 259.573 169.391 257.84C168.484 256.08 168.031 254.093 168.031 251.88ZM186.071 251.96C186.071 250.44 185.751 249.12 185.111 248C184.497 246.88 183.684 246.027 182.671 245.44C181.657 244.853 180.564 244.56 179.391 244.56C178.217 244.56 177.124 244.853 176.111 245.44C175.097 246 174.271 246.84 173.631 247.96C173.017 249.053 172.711 250.36 172.711 251.88C172.711 253.4 173.017 254.733 173.631 255.88C174.271 257.027 175.097 257.907 176.111 258.52C177.151 259.107 178.244 259.4 179.391 259.4C180.564 259.4 181.657 259.107 182.671 258.52C183.684 257.933 184.497 257.08 185.111 255.96C185.751 254.813 186.071 253.48 186.071 251.96ZM195.14 251.88C195.14 249.667 195.593 247.707 196.5 246C197.433 244.293 198.687 242.973 200.26 242.04C201.86 241.08 203.62 240.6 205.54 240.6C207.273 240.6 208.78 240.947 210.06 241.64C211.367 242.307 212.407 243.147 213.18 244.16V240.96H217.78V263H213.18V259.72C212.407 260.76 211.353 261.627 210.02 262.32C208.687 263.013 207.167 263.36 205.46 263.36C203.567 263.36 201.833 262.88 200.26 261.92C198.687 260.933 197.433 259.573 196.5 257.84C195.593 256.08 195.14 254.093 195.14 251.88ZM213.18 251.96C213.18 250.44 212.86 249.12 212.22 248C211.607 246.88 210.793 246.027 209.78 245.44C208.767 244.853 207.673 244.56 206.5 244.56C205.327 244.56 204.233 244.853 203.22 245.44C202.207 246 201.38 246.84 200.74 247.96C200.127 249.053 199.82 250.36 199.82 251.88C199.82 253.4 200.127 254.733 200.74 255.88C201.38 257.027 202.207 257.907 203.22 258.52C204.26 259.107 205.353 259.4 206.5 259.4C207.673 259.4 208.767 259.107 209.78 258.52C210.793 257.933 211.607 257.08 212.22 255.96C212.86 254.813 213.18 253.48 213.18 251.96Z" fill="#06314D"/>
<path d="M181.726 156C162.857 156 143.988 156 125.12 156C124.921 155.006 125.021 154.013 125.021 153.019C124.921 144.077 125.219 135.234 124.921 126.292C124.623 118.939 117.97 112.879 110.522 112.978C102.875 113.077 96.3207 119.138 96.2214 126.689C96.0227 136.327 96.122 146.064 96.122 155.702C96.122 155.801 96.122 155.901 96.122 156C92.547 156 89.0712 156 85.4961 156C85.4961 141.494 85.4961 126.987 85.4961 112.481C86.0919 112.382 86.4892 111.885 86.8864 111.488C102.081 96.2858 117.374 81.084 132.568 65.7829C133.66 64.69 133.66 64.69 134.753 65.7829C150.046 81.084 165.34 96.3852 180.633 111.686C181.03 112.084 181.328 112.382 181.726 112.68C181.726 113.177 181.726 113.673 181.726 114.17C181.726 128.08 181.726 141.991 181.726 156ZM152.43 146.164C158.388 146.164 164.446 146.164 170.404 146.164C171.199 146.164 171.497 145.965 171.497 145.17C171.497 134.737 171.497 124.404 171.497 113.972C171.497 113.177 171.199 112.978 170.404 112.978C158.487 112.978 146.57 112.978 134.753 112.978C133.958 112.978 133.66 113.177 133.66 114.071C133.66 124.404 133.66 134.837 133.66 145.17C133.66 146.064 133.958 146.263 134.753 146.263C140.612 146.164 146.57 146.164 152.43 146.164Z" fill="#B9BBC1"/>
<path d="M168.418 156H85.5954L85.4961 112.481L133.859 64.4913L168.418 99.664V156Z" fill="#E9EAEB"/>
<path d="M85.4961 112.481C85.4961 109.898 85.4961 107.215 85.4961 104.632C87.4823 103.738 88.9719 102.247 90.5608 100.658C104.663 86.4494 118.864 72.3406 133.065 58.1324C134.157 57.0394 134.157 57.0394 135.249 58.1324C149.55 72.4399 163.949 86.8468 178.25 101.154C179.342 102.247 180.435 103.241 181.726 104.135C181.726 107.017 181.726 109.799 181.626 112.68C181.229 112.382 180.931 111.984 180.534 111.686C165.34 96.3852 150.046 81.0841 134.753 65.6836C133.66 64.5906 133.66 64.5906 132.568 65.6836C117.374 80.8853 102.18 96.0871 86.8864 111.388C86.4892 111.786 86.1912 112.382 85.4961 112.481Z" fill="#FDC74F"/>
<path d="M152.429 146.164C146.57 146.164 140.612 146.164 134.753 146.164C133.958 146.164 133.66 145.965 133.66 145.071C133.66 134.737 133.66 124.305 133.66 113.972C133.66 113.077 133.958 112.879 134.753 112.879C146.669 112.879 158.586 112.879 170.404 112.879C171.199 112.879 171.496 113.077 171.496 113.872C171.496 124.305 171.496 134.638 171.496 145.071C171.496 145.865 171.199 146.064 170.404 146.064C164.446 146.164 158.388 146.164 152.429 146.164ZM137.533 129.571C137.533 133.446 137.533 137.221 137.533 141.096C137.533 141.891 137.732 142.189 138.626 142.189C142.201 142.09 145.875 142.189 149.45 142.189C150.245 142.189 150.543 141.99 150.543 141.096C150.543 133.346 150.543 125.696 150.543 117.946C150.543 117.151 150.344 116.853 149.549 116.853C145.875 116.853 142.3 116.853 138.626 116.853C137.831 116.853 137.632 117.151 137.632 117.946C137.632 121.821 137.533 125.696 137.533 129.571ZM167.524 129.571C167.524 125.696 167.524 121.92 167.524 118.045C167.524 117.151 167.326 116.853 166.432 116.853C162.857 116.952 159.282 116.853 155.707 116.853C154.813 116.853 154.515 117.151 154.515 118.045C154.515 125.696 154.515 133.346 154.515 141.096C154.515 141.99 154.813 142.189 155.607 142.189C159.182 142.189 162.857 142.189 166.432 142.189C167.326 142.189 167.524 141.99 167.524 141.096C167.425 137.321 167.524 133.446 167.524 129.571Z" fill="#8B8996"/>
<path d="M137.535 129.571C137.535 125.696 137.535 121.821 137.535 117.946C137.535 117.151 137.733 116.853 138.528 116.853C142.202 116.853 145.777 116.853 149.452 116.853C150.246 116.853 150.445 117.151 150.445 117.946C150.445 125.696 150.445 133.346 150.445 141.096C150.445 141.991 150.147 142.189 149.353 142.189C145.777 142.189 142.103 142.189 138.528 142.189C137.634 142.189 137.436 141.891 137.436 141.096C137.634 137.221 137.535 133.446 137.535 129.571Z" fill="#00C6C8"/>
<path d="M167.525 129.571C167.525 133.446 167.525 137.221 167.525 141.096C167.525 141.991 167.326 142.189 166.433 142.189C162.857 142.189 159.183 142.189 155.608 142.189C154.714 142.189 154.516 141.991 154.516 141.096C154.516 133.446 154.516 125.795 154.516 118.045C154.516 117.151 154.714 116.853 155.707 116.853C159.282 116.853 162.857 116.853 166.433 116.853C167.326 116.853 167.624 117.151 167.525 118.045C167.426 121.92 167.525 125.795 167.525 129.571Z" fill="#0FB0C0"/>
<path d="M190.564 91.3179C186.294 86.9462 181.925 82.6738 177.654 78.4014C177.257 78.004 176.959 77.7059 176.959 77.0104C176.959 70.254 176.959 63.3983 176.959 56.642C176.959 55.8471 177.257 55.7478 177.952 55.7478C179.045 55.7478 180.137 55.7478 181.329 55.7478C182.024 55.7478 182.222 55.549 182.222 54.8535C182.222 53.5619 182.222 52.2702 182.222 50.9786H158.389C158.389 52.2702 158.389 53.5619 158.389 54.8535C158.389 55.4497 158.587 55.7478 159.282 55.7478C160.474 55.7478 161.666 55.7478 162.857 55.7478C163.354 55.7478 163.553 55.8471 163.553 56.3439C163.553 58.8279 163.553 61.3118 163.553 63.9945C163.056 63.4977 162.758 63.299 162.46 63.0009C155.012 55.549 147.663 48.1965 140.215 40.7447C139.222 39.7511 138.13 38.8569 136.839 38.4595C133.462 37.3665 130.582 38.2607 128.1 40.7447C111.912 56.8407 95.9238 72.9367 79.9353 89.0327C77.9491 91.0199 76.0622 92.7089 75.2678 95.491C74.9699 96.3852 75.0692 98.3723 75.3671 99.664C76.6581 103.44 80.6304 105.029 84.5034 104.731C84.8013 104.632 85.1986 104.632 85.4965 104.632C87.4827 103.738 88.9723 102.247 90.5612 100.658C104.663 86.4494 118.864 72.3405 133.065 58.1324C134.157 57.0394 134.157 57.0394 135.25 58.1324C149.55 72.4399 163.95 86.8468 178.25 101.154C179.343 102.247 180.435 103.241 181.726 104.135C182.322 104.334 182.918 104.533 183.613 104.632C186.592 105.228 189.273 104.533 191.259 102.049C193.941 98.7698 193.643 94.398 190.564 91.3179Z" fill="#E60D28"/>
<path d="M159.085 42.9306C158.39 42.9306 158.092 43.1293 158.092 43.8248C158.092 46.2094 158.092 48.594 158.092 51.0779H168.023V42.9306C165.143 42.9306 162.163 42.9306 159.085 42.9306Z" fill="#FDC74F"/>
<path d="M182.024 43.8248C182.024 43.1293 181.826 42.9306 181.13 42.9306C176.761 42.9306 172.491 42.9306 168.121 42.9306V51.0779H182.024C182.024 48.6933 182.024 46.2094 182.024 43.8248Z" fill="#FCA629"/>
<path d="M133.361 74.4271L123.729 84.6609H142.895L133.361 74.4271Z" fill="#FC502A"/>
<path d="M125.119 156C124.92 155.006 125.02 154.013 125.02 153.019C124.92 144.077 125.218 135.234 124.92 126.292C124.722 120.33 120.352 115.363 114.791 113.574V155.901C118.267 156 121.643 156 125.119 156Z" fill="#0FB0C0"/>
<path d="M96.1222 126.59C95.9236 136.228 96.0229 145.965 96.0229 155.603C96.0229 155.702 96.0229 155.801 96.0229 155.901C102.279 155.901 108.436 155.901 114.693 155.901V113.574C113.302 113.177 111.912 112.879 110.423 112.879C102.776 113.077 96.2215 119.138 96.1222 126.59Z" fill="#00C6C8"/>
</svg>
