<svg width="269" height="301" viewBox="0 0 269 301" fill="none" xmlns="http://www.w3.org/2000/svg">
<circle cx="134.5" cy="105.5" r="99" fill="#5B57A6" stroke="#0CEAC6" stroke-width="13"/>
<path d="M48.9322 243.48C48.9322 244.893 48.5989 246.227 47.9322 247.48C47.2655 248.733 46.1989 249.76 44.7322 250.56C43.2655 251.333 41.3855 251.72 39.0922 251.72H34.0522V263H29.4922V235.2H39.0922C41.2255 235.2 43.0255 235.573 44.4922 236.32C45.9855 237.04 47.0922 238.027 47.8122 239.28C48.5589 240.533 48.9322 241.933 48.9322 243.48ZM39.0922 248C40.8255 248 42.1189 247.613 42.9722 246.84C43.8255 246.04 44.2522 244.92 44.2522 243.48C44.2522 240.44 42.5322 238.92 39.0922 238.92H34.0522V248H39.0922ZM73.4813 251.44C73.4813 252.267 73.4279 253.013 73.3213 253.68H56.4813C56.6146 255.44 57.2679 256.853 58.4413 257.92C59.6146 258.987 61.0546 259.52 62.7613 259.52C65.2146 259.52 66.9479 258.493 67.9613 256.44H72.8812C72.2146 258.467 71.0013 260.133 69.2413 261.44C67.5079 262.72 65.3479 263.36 62.7613 263.36C60.6546 263.36 58.7613 262.893 57.0813 261.96C55.4279 261 54.1213 259.667 53.1613 257.96C52.2279 256.227 51.7613 254.227 51.7613 251.96C51.7613 249.693 52.2146 247.707 53.1213 246C54.0546 244.267 55.3479 242.933 57.0013 242C58.6813 241.067 60.6013 240.6 62.7613 240.6C64.8413 240.6 66.6946 241.053 68.3213 241.96C69.9479 242.867 71.2146 244.147 72.1213 245.8C73.0279 247.427 73.4813 249.307 73.4813 251.44ZM68.7213 250C68.6946 248.32 68.0946 246.973 66.9213 245.96C65.7479 244.947 64.2946 244.44 62.5613 244.44C60.9879 244.44 59.6413 244.947 58.5213 245.96C57.4013 246.947 56.7346 248.293 56.5213 250H68.7213ZM104.649 240.6C106.382 240.6 107.929 240.96 109.289 241.68C110.675 242.4 111.755 243.467 112.529 244.88C113.329 246.293 113.729 248 113.729 250V263H109.209V250.68C109.209 248.707 108.715 247.2 107.729 246.16C106.742 245.093 105.395 244.56 103.689 244.56C101.982 244.56 100.622 245.093 99.6088 246.16C98.6221 247.2 98.1288 248.707 98.1288 250.68V263H93.6088V250.68C93.6088 248.707 93.1154 247.2 92.1288 246.16C91.1421 245.093 89.7954 244.56 88.0888 244.56C86.3821 244.56 85.0221 245.093 84.0088 246.16C83.0221 247.2 82.5288 248.707 82.5288 250.68V263H77.9688V240.96H82.5288V243.48C83.2754 242.573 84.2221 241.867 85.3688 241.36C86.5154 240.853 87.7421 240.6 89.0488 240.6C90.8088 240.6 92.3821 240.973 93.7688 241.72C95.1554 242.467 96.2221 243.547 96.9688 244.96C97.6354 243.627 98.6754 242.573 100.089 241.8C101.502 241 103.022 240.6 104.649 240.6ZM124.091 244.24C124.865 243.173 125.918 242.307 127.251 241.64C128.611 240.947 130.118 240.6 131.771 240.6C133.718 240.6 135.478 241.067 137.051 242C138.625 242.933 139.865 244.267 140.771 246C141.678 247.707 142.131 249.667 142.131 251.88C142.131 254.093 141.678 256.08 140.771 257.84C139.865 259.573 138.611 260.933 137.011 261.92C135.438 262.88 133.691 263.36 131.771 263.36C130.065 263.36 128.545 263.027 127.211 262.36C125.905 261.693 124.865 260.84 124.091 259.8V263H119.531V233.4H124.091V244.24ZM137.491 251.88C137.491 250.36 137.171 249.053 136.531 247.96C135.918 246.84 135.091 246 134.051 245.44C133.038 244.853 131.945 244.56 130.771 244.56C129.625 244.56 128.531 244.853 127.491 245.44C126.478 246.027 125.651 246.88 125.011 248C124.398 249.12 124.091 250.44 124.091 251.96C124.091 253.48 124.398 254.813 125.011 255.96C125.651 257.08 126.478 257.933 127.491 258.52C128.531 259.107 129.625 259.4 130.771 259.4C131.945 259.4 133.038 259.107 134.051 258.52C135.091 257.907 135.918 257.027 136.531 255.88C137.171 254.733 137.491 253.4 137.491 251.88ZM166.841 251.44C166.841 252.267 166.787 253.013 166.681 253.68H149.841C149.974 255.44 150.627 256.853 151.801 257.92C152.974 258.987 154.414 259.52 156.121 259.52C158.574 259.52 160.307 258.493 161.321 256.44H166.241C165.574 258.467 164.361 260.133 162.601 261.44C160.867 262.72 158.707 263.36 156.121 263.36C154.014 263.36 152.121 262.893 150.441 261.96C148.787 261 147.481 259.667 146.521 257.96C145.587 256.227 145.121 254.227 145.121 251.96C145.121 249.693 145.574 247.707 146.481 246C147.414 244.267 148.707 242.933 150.361 242C152.041 241.067 153.961 240.6 156.121 240.6C158.201 240.6 160.054 241.053 161.681 241.96C163.307 242.867 164.574 244.147 165.481 245.8C166.387 247.427 166.841 249.307 166.841 251.44ZM162.081 250C162.054 248.32 161.454 246.973 160.281 245.96C159.107 244.947 157.654 244.44 155.921 244.44C154.347 244.44 153.001 244.947 151.881 245.96C150.761 246.947 150.094 248.293 149.881 250H162.081ZM175.888 233.4V263H171.328V233.4H175.888ZM184.195 238.04C183.368 238.04 182.675 237.76 182.115 237.2C181.555 236.64 181.275 235.947 181.275 235.12C181.275 234.293 181.555 233.6 182.115 233.04C182.675 232.48 183.368 232.2 184.195 232.2C184.995 232.2 185.675 232.48 186.235 233.04C186.795 233.6 187.075 234.293 187.075 235.12C187.075 235.947 186.795 236.64 186.235 237.2C185.675 237.76 184.995 238.04 184.195 238.04ZM186.435 240.96V263H181.875V240.96H186.435ZM190.902 251.88C190.902 249.667 191.355 247.707 192.262 246C193.195 244.293 194.449 242.973 196.022 242.04C197.622 241.08 199.382 240.6 201.302 240.6C203.035 240.6 204.542 240.947 205.822 241.64C207.129 242.307 208.169 243.147 208.942 244.16V240.96H213.542V263H208.942V259.72C208.169 260.76 207.115 261.627 205.782 262.32C204.449 263.013 202.929 263.36 201.222 263.36C199.329 263.36 197.595 262.88 196.022 261.92C194.449 260.933 193.195 259.573 192.262 257.84C191.355 256.08 190.902 254.093 190.902 251.88ZM208.942 251.96C208.942 250.44 208.622 249.12 207.982 248C207.369 246.88 206.555 246.027 205.542 245.44C204.529 244.853 203.435 244.56 202.262 244.56C201.089 244.56 199.995 244.853 198.982 245.44C197.969 246 197.142 246.84 196.502 247.96C195.889 249.053 195.582 250.36 195.582 251.88C195.582 253.4 195.889 254.733 196.502 255.88C197.142 257.027 197.969 257.907 198.982 258.52C200.022 259.107 201.115 259.4 202.262 259.4C203.435 259.4 204.529 259.107 205.542 258.52C206.555 257.933 207.369 257.08 207.982 255.96C208.622 254.813 208.942 253.48 208.942 251.96ZM230.651 240.6C232.385 240.6 233.931 240.96 235.291 241.68C236.678 242.4 237.758 243.467 238.531 244.88C239.305 246.293 239.691 248 239.691 250V263H235.171V250.68C235.171 248.707 234.678 247.2 233.691 246.16C232.705 245.093 231.358 244.56 229.651 244.56C227.945 244.56 226.585 245.093 225.571 246.16C224.585 247.2 224.091 248.707 224.091 250.68V263H219.531V240.96H224.091V243.48C224.838 242.573 225.785 241.867 226.931 241.36C228.105 240.853 229.345 240.6 230.651 240.6Z" fill="#06314D"/>
<g clip-path="url(#clip0_1022_500)">
<path d="M120.891 145.88C120.891 117.88 120.891 89.9798 120.891 61.9798C125.491 61.9798 129.991 61.9798 134.591 61.8798C134.591 62.2798 134.691 62.7798 134.691 63.1798C134.691 67.6798 134.691 72.2798 134.691 76.7798C134.691 77.7798 134.891 78.1798 135.991 78.1798C137.491 78.0798 139.091 78.0798 140.691 78.1798C141.791 78.2798 142.091 77.9798 142.091 76.7798C141.991 71.7798 142.091 66.7798 142.091 61.7798C147.291 61.7798 152.591 61.7798 157.791 61.7798C158.691 61.7798 159.091 61.9798 159.091 62.9798C159.391 69.1798 159.791 75.2798 160.191 81.4798C160.391 84.5798 160.591 87.5798 160.691 90.6798C160.791 92.8798 160.891 95.1798 160.991 97.3798C157.891 97.7798 154.791 98.2798 151.991 99.4798C141.291 104.18 134.991 112.18 133.591 123.78C132.591 131.68 134.791 138.88 139.691 145.18C139.791 145.38 139.891 145.48 139.991 145.68C133.591 145.88 127.191 145.88 120.891 145.88Z" fill="#FEB555"/>
<path d="M132.49 127.18C132.49 110.98 145.59 97.8798 161.69 97.7798V156.58C145.49 156.48 132.49 143.38 132.49 127.18Z" fill="#0FB0C0"/>
<path d="M161.889 97.7798C178.089 97.7798 191.289 110.98 191.289 127.18C191.289 143.38 178.089 156.58 161.889 156.58C161.789 156.58 161.789 156.58 161.689 156.58V97.7798C161.789 97.7798 161.789 97.7798 161.889 97.7798Z" fill="#00C6C8"/>
<path d="M120.89 145.88C112.79 145.88 104.69 146.08 96.5903 145.88C87.7903 145.58 80.9903 139.58 79.2903 131.08C78.6903 128.18 79.1903 125.38 79.2903 122.48C79.3903 119.18 79.6903 115.78 79.8903 112.48C80.3903 104.58 80.7903 96.5798 81.2903 88.6798C81.5903 84.1798 81.7903 79.7798 82.0903 75.2798C82.2903 71.1798 82.5903 66.9798 82.7903 62.8798C82.7903 61.9798 83.2903 62.0798 83.8903 62.0798C89.1903 62.0798 94.4903 62.0798 99.7903 62.0798C99.7903 62.4798 99.7903 62.9798 99.7903 63.3798C99.7903 67.8798 99.7903 72.3798 99.7903 76.8798C99.7903 77.9798 100.09 78.1798 101.09 78.1798C102.59 78.0798 104.09 78.0798 105.69 78.1798C106.69 78.2798 106.99 77.9798 106.99 76.8798C106.99 71.8798 106.99 66.9798 106.99 61.9798C111.59 61.9798 116.19 61.9798 120.89 61.9798C120.79 89.9798 120.89 117.88 120.89 145.88Z" fill="#FEDD55"/>
<path d="M141.99 61.8798C141.99 66.8798 141.89 71.8798 141.99 76.8798C141.99 78.0798 141.59 78.2798 140.59 78.2798C138.99 78.1798 137.49 78.1798 135.89 78.2798C134.79 78.3798 134.59 77.8798 134.59 76.8798C134.69 72.3798 134.59 67.7798 134.59 63.2798C134.59 62.8798 134.59 62.3798 134.49 61.9798C134.49 59.3798 134.59 56.7798 134.49 54.1798C134.29 47.1798 128.89 41.8798 121.69 41.1798C115.29 40.4798 108.99 45.0798 107.39 51.4798C106.49 54.9798 106.99 58.4798 106.99 61.9798C106.99 66.9798 106.89 71.8798 106.99 76.8798C106.99 77.9798 106.69 78.2798 105.69 78.1798C104.19 78.0798 102.69 78.0798 101.09 78.1798C100.09 78.2798 99.6903 77.9798 99.7903 76.8798C99.8903 72.3798 99.7903 67.8798 99.7903 63.3798C99.7903 62.9798 99.7903 62.4798 99.7903 62.0798C99.7903 59.8798 99.7903 57.5798 99.8903 55.3798C99.8903 44.8798 106.89 36.4798 117.19 34.3798C128.29 32.1798 139.59 39.7798 141.59 50.8798C141.89 52.5798 142.09 54.1798 142.09 55.8798C141.89 57.8798 141.99 59.8798 141.99 61.8798Z" fill="#353E3D"/>
<path d="M162.79 136.58C161.79 137.58 160.69 138.68 159.69 139.68C159.19 140.18 158.99 140.38 158.39 139.68C154.89 135.68 151.39 131.68 147.89 127.78C147.39 127.18 147.59 126.98 147.99 126.58C149.39 125.38 150.79 124.18 152.09 122.88C152.59 122.48 152.79 122.48 153.19 122.98C154.89 124.98 156.79 126.98 158.49 128.98C158.99 129.58 159.39 129.68 159.89 128.98C160.79 127.88 161.99 126.98 162.79 125.78C165.79 122.68 168.89 119.58 171.89 116.38C172.49 115.68 172.89 115.68 173.49 116.38C174.69 117.58 175.89 118.78 177.19 119.98C177.79 120.48 177.79 120.78 177.19 121.38C172.49 126.18 167.79 131.08 163.09 135.88C163.09 136.18 162.99 136.38 162.79 136.58Z" fill="#FEFEFE"/>
</g>
<defs>
<clipPath id="clip0_1022_500">
<rect width="112.4" height="122.7" fill="white" transform="translate(79 34)"/>
</clipPath>
</defs>
</svg>
