<svg width="269" height="301" viewBox="0 0 269 301" fill="none" xmlns="http://www.w3.org/2000/svg">
<circle cx="134.5" cy="105.5" r="99" fill="#5B57A6" stroke="#0CEAC6" stroke-width="13"/>
<path d="M56.0806 243.48C56.0806 244.893 55.7473 246.227 55.0806 247.48C54.414 248.733 53.3473 249.76 51.8806 250.56C50.414 251.333 48.534 251.72 46.2406 251.72H41.2006V263H36.6406V235.2H46.2406C48.374 235.2 50.174 235.573 51.6406 236.32C53.134 237.04 54.2406 238.027 54.9606 239.28C55.7073 240.533 56.0806 241.933 56.0806 243.48ZM46.2406 248C47.974 248 49.2673 247.613 50.1206 246.84C50.974 246.04 51.4006 244.92 51.4006 243.48C51.4006 240.44 49.6806 238.92 46.2406 238.92H41.2006V248H46.2406ZM80.6297 251.44C80.6297 252.267 80.5764 253.013 80.4697 253.68H63.6297C63.763 255.44 64.4164 256.853 65.5897 257.92C66.763 258.987 68.203 259.52 69.9097 259.52C72.363 259.52 74.0964 258.493 75.1097 256.44H80.0297C79.363 258.467 78.1497 260.133 76.3897 261.44C74.6564 262.72 72.4964 263.36 69.9097 263.36C67.803 263.36 65.9097 262.893 64.2297 261.96C62.5764 261 61.2697 259.667 60.3097 257.96C59.3764 256.227 58.9097 254.227 58.9097 251.96C58.9097 249.693 59.363 247.707 60.2697 246C61.203 244.267 62.4964 242.933 64.1497 242C65.8297 241.067 67.7497 240.6 69.9097 240.6C71.9897 240.6 73.843 241.053 75.4697 241.96C77.0964 242.867 78.363 244.147 79.2697 245.8C80.1764 247.427 80.6297 249.307 80.6297 251.44ZM75.8697 250C75.843 248.32 75.243 246.973 74.0697 245.96C72.8964 244.947 71.443 244.44 69.7097 244.44C68.1364 244.44 66.7897 244.947 65.6697 245.96C64.5497 246.947 63.883 248.293 63.6697 250H75.8697ZM96.2372 240.6C97.9705 240.6 99.5172 240.96 100.877 241.68C102.264 242.4 103.344 243.467 104.117 244.88C104.891 246.293 105.277 248 105.277 250V263H100.757V250.68C100.757 248.707 100.264 247.2 99.2772 246.16C98.2905 245.093 96.9439 244.56 95.2372 244.56C93.5305 244.56 92.1705 245.093 91.1572 246.16C90.1705 247.2 89.6772 248.707 89.6772 250.68V263H85.1172V240.96H89.6772V243.48C90.4239 242.573 91.3705 241.867 92.5172 241.36C93.6905 240.853 94.9305 240.6 96.2372 240.6ZM113.414 238.04C112.587 238.04 111.894 237.76 111.334 237.2C110.774 236.64 110.494 235.947 110.494 235.12C110.494 234.293 110.774 233.6 111.334 233.04C111.894 232.48 112.587 232.2 113.414 232.2C114.214 232.2 114.894 232.48 115.454 233.04C116.014 233.6 116.294 234.293 116.294 235.12C116.294 235.947 116.014 236.64 115.454 237.2C114.894 237.76 114.214 238.04 113.414 238.04ZM115.654 267.32C115.654 269.48 115.107 271.04 114.014 272C112.947 272.987 111.387 273.48 109.334 273.48H106.974V269.64H108.534C109.467 269.64 110.12 269.453 110.494 269.08C110.894 268.733 111.094 268.147 111.094 267.32V240.96H115.654V267.32ZM141.601 240.96V263H137.041V260.4C136.321 261.307 135.374 262.027 134.201 262.56C133.054 263.067 131.827 263.32 130.521 263.32C128.787 263.32 127.227 262.96 125.841 262.24C124.481 261.52 123.401 260.453 122.601 259.04C121.827 257.627 121.441 255.92 121.441 253.92V240.96H125.961V253.24C125.961 255.213 126.454 256.733 127.441 257.8C128.427 258.84 129.774 259.36 131.481 259.36C133.187 259.36 134.534 258.84 135.521 257.8C136.534 256.733 137.041 255.213 137.041 253.24V240.96H141.601ZM146.097 251.88C146.097 249.667 146.551 247.707 147.457 246C148.391 244.293 149.644 242.973 151.217 242.04C152.817 241.08 154.577 240.6 156.497 240.6C158.231 240.6 159.737 240.947 161.017 241.64C162.324 242.307 163.364 243.147 164.137 244.16V240.96H168.737V263H164.137V259.72C163.364 260.76 162.311 261.627 160.977 262.32C159.644 263.013 158.124 263.36 156.417 263.36C154.524 263.36 152.791 262.88 151.217 261.92C149.644 260.933 148.391 259.573 147.457 257.84C146.551 256.08 146.097 254.093 146.097 251.88ZM164.137 251.96C164.137 250.44 163.817 249.12 163.177 248C162.564 246.88 161.751 246.027 160.737 245.44C159.724 244.853 158.631 244.56 157.457 244.56C156.284 244.56 155.191 244.853 154.177 245.44C153.164 246 152.337 246.84 151.697 247.96C151.084 249.053 150.777 250.36 150.777 251.88C150.777 253.4 151.084 254.733 151.697 255.88C152.337 257.027 153.164 257.907 154.177 258.52C155.217 259.107 156.311 259.4 157.457 259.4C158.631 259.4 159.724 259.107 160.737 258.52C161.751 257.933 162.564 257.08 163.177 255.96C163.817 254.813 164.137 253.48 164.137 251.96ZM179.287 233.4V263H174.727V233.4H179.287ZM183.753 251.88C183.753 249.667 184.207 247.707 185.113 246C186.047 244.293 187.3 242.973 188.873 242.04C190.473 241.08 192.233 240.6 194.153 240.6C195.887 240.6 197.393 240.947 198.673 241.64C199.98 242.307 201.02 243.147 201.793 244.16V240.96H206.393V263H201.793V259.72C201.02 260.76 199.967 261.627 198.633 262.32C197.3 263.013 195.78 263.36 194.073 263.36C192.18 263.36 190.447 262.88 188.873 261.92C187.3 260.933 186.047 259.573 185.113 257.84C184.207 256.08 183.753 254.093 183.753 251.88ZM201.793 251.96C201.793 250.44 201.473 249.12 200.833 248C200.22 246.88 199.407 246.027 198.393 245.44C197.38 244.853 196.287 244.56 195.113 244.56C193.94 244.56 192.847 244.853 191.833 245.44C190.82 246 189.993 246.84 189.353 247.96C188.74 249.053 188.433 250.36 188.433 251.88C188.433 253.4 188.74 254.733 189.353 255.88C189.993 257.027 190.82 257.907 191.833 258.52C192.873 259.107 193.967 259.4 195.113 259.4C196.287 259.4 197.38 259.107 198.393 258.52C199.407 257.933 200.22 257.08 200.833 255.96C201.473 254.813 201.793 253.48 201.793 251.96ZM223.503 240.6C225.236 240.6 226.783 240.96 228.143 241.68C229.529 242.4 230.609 243.467 231.383 244.88C232.156 246.293 232.543 248 232.543 250V263H228.023V250.68C228.023 248.707 227.529 247.2 226.543 246.16C225.556 245.093 224.209 244.56 222.503 244.56C220.796 244.56 219.436 245.093 218.423 246.16C217.436 247.2 216.943 248.707 216.943 250.68V263H212.383V240.96H216.943V243.48C217.689 242.573 218.636 241.867 219.783 241.36C220.956 240.853 222.196 240.6 223.503 240.6Z" fill="#06314D"/>
<g clip-path="url(#clip0_1022_532)">
<path d="M148.951 146C157.051 146 165.151 146.2 173.251 146C182.051 145.7 188.851 139.7 190.551 131.2C191.151 128.3 190.651 125.5 190.551 122.6C190.451 119.3 190.151 115.9 189.951 112.6C189.451 104.7 189.051 96.7 188.551 88.8C188.251 84.3 188.051 79.9 187.751 75.4C187.551 71.3 187.251 67.1 187.051 63C187.051 62.1 186.551 62.2 185.951 62.2C180.651 62.2 175.351 62.2 170.051 62.2C170.051 62.6 170.051 63.1 170.051 63.5C170.051 68 170.051 72.5 170.051 77C170.051 78.1 169.751 78.3 168.751 78.3C167.251 78.2 165.751 78.2 164.151 78.3C163.151 78.4 162.851 78.1 162.851 77C162.851 72 162.851 67.1 162.851 62.1C158.251 62.1 153.651 62.1 148.951 62.1C148.951 90.1 148.951 118 148.951 146Z" fill="#FEDD55"/>
<path d="M148.952 146C148.952 118 148.952 90.1 148.952 62.1C144.352 62.1 139.852 62.1 135.252 62C135.252 62.4 135.152 62.9 135.152 63.3C135.152 67.8 135.152 72.4 135.152 76.9C135.152 77.9 134.952 78.3 133.852 78.3C132.352 78.2 130.752 78.2 129.152 78.3C128.052 78.4 127.752 78.1 127.752 76.9C127.852 71.9 127.752 66.9 127.752 61.9C122.552 61.9 117.252 61.9 112.052 61.9C111.152 61.9 110.752 62.1 110.752 63.1C110.452 69.3 110.052 75.4 109.652 81.6C109.452 84.7 109.252 87.7 109.152 90.8C109.052 93 108.952 95.3 108.852 97.5C111.952 97.9 115.052 98.4 117.852 99.6C128.552 104.3 134.852 112.3 136.252 123.9C137.252 131.8 135.052 139 130.152 145.3C130.052 145.5 129.952 145.6 129.852 145.8C136.252 146 142.652 146 148.952 146Z" fill="#FEB555"/>
<path d="M127.852 62C127.852 67 127.952 72 127.852 77C127.852 78.2 128.252 78.4 129.252 78.4C130.852 78.3 132.352 78.3 133.952 78.4C135.052 78.5 135.252 78 135.252 77C135.152 72.5 135.252 67.9 135.252 63.4C135.252 63 135.252 62.5 135.352 62.1C135.352 59.5 135.252 56.9 135.352 54.3C135.652 47.4 140.952 42.1 148.152 41.3C154.552 40.6 160.852 45.2 162.452 51.6C163.352 55.1 162.852 58.6 162.852 62.1C162.852 67.1 162.952 72 162.852 77C162.852 78.1 163.152 78.4 164.152 78.3C165.652 78.2 167.152 78.2 168.752 78.3C169.752 78.4 170.152 78.1 170.052 77C169.952 72.5 170.052 68 170.052 63.5C170.052 63.1 170.052 62.6 170.052 62.2C170.052 60 170.052 57.7 169.952 55.5C169.952 45 162.952 36.6 152.652 34.5C141.652 32.2 130.352 39.8 128.352 50.9C128.052 52.6 127.852 54.2 127.852 55.9C127.952 58 127.852 60 127.852 62Z" fill="#353E3D"/>
<path d="M136.85 127.3C136.85 111.1 123.75 98 107.65 97.9V156.7C123.75 156.6 136.85 143.5 136.85 127.3Z" fill="#0FB0C0"/>
<path d="M107.451 97.9C91.2508 97.9 78.0508 111.1 78.0508 127.3C78.0508 143.5 91.2508 156.7 107.451 156.7C107.551 156.7 107.551 156.7 107.651 156.7V97.9C107.551 97.9 107.551 97.9 107.451 97.9Z" fill="#00C6C8"/>
<path d="M109.65 140.5V145.2H104.15V140.4C99.7504 139.4 96.1504 136.5 95.6504 132.2L102.15 131C102.55 134.4 104.95 135.4 107.25 135.4C109.55 135.4 111.05 134.3 111.05 132.7C111.05 131.6 110.55 130.8 108.65 130.4L103.35 129.2C99.4504 128.4 96.1504 126.3 96.1504 121.8C96.1504 117.3 99.3504 114.4 104.05 113.6V109H109.55V113.7C113.95 114.7 116.95 117.6 117.35 121.8L111.05 122.9C110.85 119.6 108.45 118.6 106.45 118.6C104.35 118.6 102.95 119.7 102.95 121.2C102.95 122.3 103.55 123 104.95 123.4L110.35 124.6C114.95 125.6 117.55 128.1 117.55 132.2C117.65 137 114.05 139.8 109.65 140.5Z" fill="#FEFEFE"/>
</g>
<defs>
<clipPath id="clip0_1022_532">
<rect width="112.9" height="122.7" fill="white" transform="translate(78.0508 34)"/>
</clipPath>
</defs>
</svg>
