<svg width="269" height="301" viewBox="0 0 269 301" fill="none" xmlns="http://www.w3.org/2000/svg">
<circle cx="134.5" cy="105.5" r="99" fill="#5B57A6" stroke="#0CEAC6" stroke-width="13"/>
<path d="M59.0913 259.32H68.4913V263H54.5313V235.2H59.0913V259.32ZM70.7847 251.88C70.7847 249.667 71.238 247.707 72.1447 246C73.078 244.293 74.3314 242.973 75.9047 242.04C77.5047 241.08 79.2647 240.6 81.1847 240.6C82.918 240.6 84.4247 240.947 85.7047 241.64C87.0114 242.307 88.0514 243.147 88.8247 244.16V240.96H93.4247V263H88.8247V259.72C88.0514 260.76 86.998 261.627 85.6647 262.32C84.3314 263.013 82.8114 263.36 81.1047 263.36C79.2114 263.36 77.478 262.88 75.9047 261.92C74.3314 260.933 73.078 259.573 72.1447 257.84C71.238 256.08 70.7847 254.093 70.7847 251.88ZM88.8247 251.96C88.8247 250.44 88.5047 249.12 87.8647 248C87.2514 246.88 86.438 246.027 85.4247 245.44C84.4114 244.853 83.318 244.56 82.1447 244.56C80.9714 244.56 79.878 244.853 78.8647 245.44C77.8514 246 77.0247 246.84 76.3847 247.96C75.7714 249.053 75.4647 250.36 75.4647 251.88C75.4647 253.4 75.7714 254.733 76.3847 255.88C77.0247 257.027 77.8514 257.907 78.8647 258.52C79.9047 259.107 80.998 259.4 82.1447 259.4C83.318 259.4 84.4114 259.107 85.4247 258.52C86.438 257.933 87.2514 257.08 87.8647 255.96C88.5047 254.813 88.8247 253.48 88.8247 251.96ZM103.974 244.2C104.747 243.187 105.801 242.333 107.134 241.64C108.467 240.947 109.974 240.6 111.654 240.6C113.574 240.6 115.321 241.08 116.894 242.04C118.494 242.973 119.747 244.293 120.654 246C121.561 247.707 122.014 249.667 122.014 251.88C122.014 254.093 121.561 256.08 120.654 257.84C119.747 259.573 118.494 260.933 116.894 261.92C115.321 262.88 113.574 263.36 111.654 263.36C109.974 263.36 108.481 263.027 107.174 262.36C105.867 261.667 104.801 260.813 103.974 259.8V273.48H99.4141V240.96H103.974V244.2ZM117.374 251.88C117.374 250.36 117.054 249.053 116.414 247.96C115.801 246.84 114.974 246 113.934 245.44C112.921 244.853 111.827 244.56 110.654 244.56C109.507 244.56 108.414 244.853 107.374 245.44C106.361 246.027 105.534 246.88 104.894 248C104.281 249.12 103.974 250.44 103.974 251.96C103.974 253.48 104.281 254.813 104.894 255.96C105.534 257.08 106.361 257.933 107.374 258.52C108.414 259.107 109.507 259.4 110.654 259.4C111.827 259.4 112.921 259.107 113.934 258.52C114.974 257.907 115.801 257.027 116.414 255.88C117.054 254.733 117.374 253.4 117.374 251.88ZM136.083 263.36C134.003 263.36 132.123 262.893 130.443 261.96C128.763 261 127.443 259.667 126.483 257.96C125.523 256.227 125.043 254.227 125.043 251.96C125.043 249.72 125.537 247.733 126.523 246C127.51 244.267 128.857 242.933 130.563 242C132.27 241.067 134.177 240.6 136.283 240.6C138.39 240.6 140.297 241.067 142.003 242C143.71 242.933 145.057 244.267 146.043 246C147.03 247.733 147.523 249.72 147.523 251.96C147.523 254.2 147.017 256.187 146.003 257.92C144.99 259.653 143.603 261 141.843 261.96C140.11 262.893 138.19 263.36 136.083 263.36ZM136.083 259.4C137.257 259.4 138.35 259.12 139.363 258.56C140.403 258 141.243 257.16 141.883 256.04C142.523 254.92 142.843 253.56 142.843 251.96C142.843 250.36 142.537 249.013 141.923 247.92C141.31 246.8 140.497 245.96 139.483 245.4C138.47 244.84 137.377 244.56 136.203 244.56C135.03 244.56 133.937 244.84 132.923 245.4C131.937 245.96 131.15 246.8 130.563 247.92C129.977 249.013 129.683 250.36 129.683 251.96C129.683 254.333 130.283 256.173 131.483 257.48C132.71 258.76 134.243 259.4 136.083 259.4ZM156.591 244.16C157.258 243.04 158.138 242.173 159.231 241.56C160.351 240.92 161.671 240.6 163.191 240.6V245.32H162.031C160.245 245.32 158.885 245.773 157.951 246.68C157.045 247.587 156.591 249.16 156.591 251.4V263H152.031V240.96H156.591V244.16ZM165.863 251.88C165.863 249.667 166.316 247.707 167.223 246C168.156 244.293 169.409 242.973 170.983 242.04C172.583 241.08 174.343 240.6 176.263 240.6C177.996 240.6 179.503 240.947 180.783 241.64C182.089 242.307 183.129 243.147 183.903 244.16V240.96H188.503V263H183.903V259.72C183.129 260.76 182.076 261.627 180.743 262.32C179.409 263.013 177.889 263.36 176.183 263.36C174.289 263.36 172.556 262.88 170.983 261.92C169.409 260.933 168.156 259.573 167.223 257.84C166.316 256.08 165.863 254.093 165.863 251.88ZM183.903 251.96C183.903 250.44 183.583 249.12 182.943 248C182.329 246.88 181.516 246.027 180.503 245.44C179.489 244.853 178.396 244.56 177.223 244.56C176.049 244.56 174.956 244.853 173.943 245.44C172.929 246 172.103 246.84 171.463 247.96C170.849 249.053 170.543 250.36 170.543 251.88C170.543 253.4 170.849 254.733 171.463 255.88C172.103 257.027 172.929 257.907 173.943 258.52C174.983 259.107 176.076 259.4 177.223 259.4C178.396 259.4 179.489 259.107 180.503 258.52C181.516 257.933 182.329 257.08 182.943 255.96C183.583 254.813 183.903 253.48 183.903 251.96ZM205.612 240.6C207.346 240.6 208.892 240.96 210.252 241.68C211.639 242.4 212.719 243.467 213.492 244.88C214.266 246.293 214.652 248 214.652 250V263H210.132V250.68C210.132 248.707 209.639 247.2 208.652 246.16C207.666 245.093 206.319 244.56 204.612 244.56C202.906 244.56 201.546 245.093 200.532 246.16C199.546 247.2 199.052 248.707 199.052 250.68V263H194.492V240.96H199.052V243.48C199.799 242.573 200.746 241.867 201.892 241.36C203.066 240.853 204.306 240.6 205.612 240.6Z" fill="#06314D"/>
<g clip-path="url(#clip0_1022_547)">
<path d="M94.4559 157C91.8378 156.058 91 154.176 91 151.456C91 118.922 91 86.4929 91 53.9592C91 50.2978 92.6756 48.7287 96.2361 48.7287C102.205 48.7287 108.175 48.7287 114.248 48.7287C114.248 51.1347 114.248 53.4361 114.248 55.8422C109.641 55.8422 104.928 55.8422 100.32 55.8422C98.6448 55.8422 98.1211 56.3652 98.1211 57.9344C98.1211 87.8528 98.1211 117.876 98.1211 147.794C98.1211 149.468 98.6448 149.886 100.32 149.886C109.85 149.886 119.275 149.886 128.805 149.886C131.947 149.886 134.984 149.886 138.125 149.886C138.544 149.886 139.068 149.886 139.487 149.886C143.885 149.886 148.283 149.886 152.577 149.886C155.195 149.886 157.813 149.991 160.431 149.991C160.431 150.828 160.431 151.665 160.431 152.502C160.431 153.966 159.908 155.222 158.651 156.163C158.232 156.477 157.708 156.791 157.185 157.105C136.345 157 115.4 157 94.4559 157Z" fill="#FEC150"/>
<path d="M157.186 157C157.709 156.686 158.233 156.477 158.652 156.058C159.908 155.117 160.327 153.862 160.432 152.397C160.432 151.56 160.432 150.723 160.432 149.886C162.317 149.886 164.202 149.886 166.087 149.886C167.344 149.886 167.867 149.363 167.867 148.108C167.867 136.915 167.867 125.617 167.867 114.424C170.171 110.553 172.58 106.892 174.988 103.126C174.988 105.113 174.988 106.996 174.988 108.984C174.988 123.106 174.988 137.229 174.988 151.351C174.988 154.071 174.151 155.954 171.742 157C166.925 157 162.108 157 157.186 157Z" fill="#E9B14E"/>
<path d="M114.248 55.8422C114.248 53.4362 114.248 51.1348 114.248 48.7287C114.457 46.8457 115.609 45.695 117.494 45.695C119.065 45.695 120.531 45.695 122.102 45.695C123.254 45.695 123.673 45.2766 123.778 44.1259C123.778 43.3936 123.778 42.766 123.778 42.0337C123.883 40.3599 125.139 39 126.815 39C131.004 39 135.088 39 139.277 39C141.057 39 142.314 40.3599 142.314 42.1383C142.209 46.3227 142.733 45.695 145.979 45.695C146.817 45.695 147.655 45.695 148.492 45.695C150.482 45.695 151.634 46.7411 151.844 48.7287C151.844 51.1348 151.844 53.4362 151.844 55.8422C139.277 55.8422 126.815 55.8422 114.248 55.8422Z" fill="#C1CFD9"/>
<path d="M157.289 48.7287C161.792 48.7287 166.295 48.6241 170.903 48.7287C173.312 48.7287 175.092 50.7163 175.092 53.227C175.092 61.2819 175.092 69.2323 175.092 77.2873C175.092 77.8103 175.092 78.3334 175.092 78.8564C172.788 82.727 170.379 86.3883 167.971 90.1543C167.971 89.8405 167.971 89.6312 167.971 89.3174C167.971 78.8564 167.971 68.3954 167.971 57.9344C167.971 56.2607 167.552 55.8422 165.876 55.8422C164.096 55.8422 162.316 55.8422 160.535 55.8422C160.535 55.4238 160.535 55.0053 160.535 54.5869C160.64 51.867 159.802 49.8795 157.289 48.7287Z" fill="#E9B14E"/>
<path d="M167.866 90.1543C170.275 86.3883 172.788 82.7269 174.987 78.8564C175.092 78.8564 175.197 78.7518 175.406 78.7518C176.663 79.5886 177.919 80.4255 179.176 81.2624C174.359 88.7943 169.542 96.3262 164.829 103.858C157.917 114.738 151.006 125.617 144.094 136.496C142.733 135.973 141.476 135.66 140.01 135.764C140.219 134.509 140.743 133.254 141.371 132.103C143.047 129.488 144.722 126.872 146.293 124.257C148.597 120.491 151.006 116.83 153.31 113.064C153.833 112.332 154.357 111.599 154.776 110.867C159.174 103.963 163.572 97.0585 167.866 90.1543Z" fill="#FB8086"/>
<path d="M174.988 103.126C172.579 106.892 170.17 110.553 167.866 114.424C165.458 118.085 163.154 121.851 160.745 125.512C158.232 129.592 155.614 133.567 153.101 137.647C152.053 139.112 151.111 140.681 149.54 141.622C148.912 140.367 148.074 139.216 146.922 138.275C147.341 138.066 147.445 137.752 147.655 137.438C148.702 135.764 149.749 134.195 150.797 132.521C156.975 122.688 163.259 112.855 169.542 103.021C173.731 96.3262 177.92 89.7358 182.213 83.0408C183.47 83.773 184.727 84.6099 185.983 85.3422C185.669 86.5975 184.832 87.539 184.203 88.4805C181.062 93.3972 178.025 98.2092 174.988 103.126Z" fill="#FB8086"/>
<path d="M178.863 73.1029C179.701 71.2199 180.748 69.5461 182.11 67.977C183.471 66.4078 185.775 66.1986 187.66 67.2447C188.812 67.8724 189.964 68.6046 191.011 69.4415C192.687 70.6968 193.42 72.9982 192.582 74.8812C191.744 76.6596 190.697 78.3334 189.44 79.7979C187.346 78.438 185.356 77.078 183.157 75.8227C181.796 74.8812 180.434 73.8351 178.863 73.1029Z" fill="#8C9BA6"/>
<path d="M178.863 73.1028C180.434 73.8351 181.796 74.8812 183.262 75.7181C185.356 76.9734 187.451 78.438 189.545 79.6933C188.498 81.6809 187.451 83.5638 185.88 85.2376C184.623 84.5053 183.366 83.6684 182.11 82.9362C181.167 82.2039 180.225 81.5763 179.073 81.0532C177.816 80.2163 176.559 79.3794 175.303 78.5426C176.35 76.6596 177.502 74.8812 178.863 73.1028Z" fill="#C8E1E6"/>
<path d="M157.289 48.7287C159.803 49.8794 160.745 51.867 160.536 54.4822C160.536 54.9007 160.536 55.3191 160.536 55.7376C157.918 55.7376 155.3 55.7376 152.682 55.8422C152.367 55.8422 152.053 55.8422 151.844 55.7376C151.844 53.3315 151.844 51.0301 151.844 48.6241C153.519 48.7287 155.404 48.7287 157.289 48.7287Z" fill="#FEC150"/>
<path d="M151.739 55.8422C152.053 55.8422 152.367 55.8422 152.577 55.9468C153.31 56.9929 153.31 58.1436 153.31 59.2944C153.31 62.4326 153.31 65.5709 153.31 68.8139C153.101 68.8139 152.891 68.8139 152.577 68.8139C147.027 68.8139 141.372 68.8139 135.821 68.8139C134.355 68.8139 133.622 69.5461 133.727 70.9061C133.832 71.9522 134.565 72.4752 136.031 72.4752C141.79 72.4752 147.55 72.4752 153.31 72.4752C153.31 78.8564 153.31 85.2376 153.31 91.6188C153.31 98.8369 153.31 105.95 153.31 113.168C151.006 116.934 148.597 120.596 146.294 124.362C144.618 126.977 142.942 129.592 141.372 132.207C140.639 133.358 140.22 134.509 140.01 135.869C139.068 139.635 138.125 143.401 137.183 147.167C136.869 148.317 137.183 149.259 138.125 149.887C134.984 149.887 131.947 149.887 128.805 149.887C119.275 149.887 109.85 149.887 100.32 149.887C98.6447 149.887 98.1211 149.468 98.1211 147.794C98.1211 117.876 98.1211 87.8529 98.1211 57.9344C98.1211 56.3653 98.6447 55.8422 100.32 55.8422C104.928 55.8422 109.641 55.8422 114.248 55.8422C126.815 55.8422 139.277 55.8422 151.739 55.8422ZM116.971 64.6295C114.772 64.6295 112.468 64.6295 110.269 64.6295C108.384 64.6295 107.232 65.7802 107.232 67.7678C107.232 72.0568 107.232 76.4504 107.232 80.7394C107.232 82.727 108.384 83.8777 110.374 83.8777C114.667 83.8777 119.066 83.8777 123.359 83.8777C125.349 83.8777 126.501 82.727 126.501 80.7394C126.501 76.4504 126.501 72.1614 126.501 67.8724C126.501 65.7802 125.349 64.6295 123.255 64.6295C121.16 64.6295 119.066 64.6295 116.971 64.6295ZM116.866 141.099C119.066 141.099 121.265 141.099 123.464 141.099C125.349 141.099 126.501 139.949 126.606 137.961C126.606 133.672 126.606 129.278 126.606 124.989C126.606 123.002 125.454 121.851 123.464 121.851C119.17 121.851 114.772 121.851 110.478 121.851C108.489 121.851 107.337 123.002 107.337 124.989C107.337 129.278 107.337 133.567 107.337 137.856C107.337 139.949 108.489 141.099 110.478 141.099C112.573 141.099 114.667 141.099 116.866 141.099ZM126.501 103.021C126.501 100.824 126.501 98.6277 126.501 96.4309C126.501 94.3387 125.349 93.188 123.255 93.188C118.961 93.188 114.667 93.188 110.374 93.188C108.279 93.188 107.232 94.3387 107.232 96.4309C107.232 100.72 107.232 104.904 107.232 109.193C107.232 111.285 108.384 112.436 110.478 112.436C114.772 112.436 118.961 112.436 123.255 112.436C125.349 112.436 126.501 111.285 126.501 109.193C126.501 107.101 126.501 105.113 126.501 103.021ZM142.838 97.2678C140.429 97.2678 138.02 97.2678 135.612 97.2678C134.46 97.2678 133.727 98 133.727 99.1507C133.727 100.197 134.46 100.929 135.612 100.929C140.324 100.929 145.142 100.929 149.854 100.929C151.006 100.929 151.949 99.9876 151.949 99.0461C151.949 97.8954 151.216 97.2678 149.854 97.2678C147.55 97.2678 145.142 97.2678 142.838 97.2678ZM140.848 108.356C142.628 108.356 144.409 108.356 146.189 108.356C147.131 108.356 148.283 107.52 148.283 106.578C148.283 105.637 147.655 105.009 146.712 104.8C146.294 104.695 145.77 104.59 145.351 104.59C142.419 104.59 139.487 104.59 136.554 104.59C136.135 104.59 135.821 104.59 135.402 104.695C134.041 105.009 133.622 105.532 133.727 106.787C133.832 107.729 134.565 108.252 135.717 108.252C137.392 108.356 139.068 108.356 140.848 108.356ZM140.848 79.7979C142.524 79.7979 144.199 79.7979 145.875 79.7979C147.027 79.7979 148.074 78.961 148.179 78.1241C148.283 77.078 147.236 76.1366 145.979 76.1366C142.524 76.1366 139.172 76.1366 135.717 76.1366C134.355 76.1366 133.622 76.8688 133.727 78.0195C133.727 79.1702 134.46 79.7979 135.821 79.7979C137.497 79.7979 139.172 79.7979 140.848 79.7979Z" fill="#F4F4F4"/>
<path d="M153.1 137.647C155.613 133.567 158.126 129.488 160.745 125.512C163.048 121.746 165.457 118.085 167.866 114.424C167.866 125.617 167.866 136.915 167.866 148.108C167.866 149.363 167.342 149.887 166.085 149.887C164.2 149.887 162.315 149.887 160.43 149.887C157.812 149.887 155.194 149.782 152.576 149.782C153.309 148.84 153.309 147.69 153.309 146.539C153.309 143.924 153.309 141.309 153.309 138.798C153.309 138.379 153.414 137.961 153.1 137.647Z" fill="#E9E9E9"/>
<path d="M138.125 149.782C137.078 149.154 136.869 148.213 137.183 147.062C138.125 143.296 139.068 139.53 140.01 135.764C141.476 135.764 142.733 136.078 144.094 136.496C145.037 137.124 145.979 137.647 146.922 138.275C148.074 139.216 148.912 140.367 149.54 141.622C149.435 141.832 149.226 142.041 149.121 142.145C145.979 144.656 142.733 147.271 139.591 149.782C139.068 149.782 138.544 149.782 138.125 149.782Z" fill="#7D8B96"/>
<path d="M139.486 149.782C142.628 147.271 145.874 144.656 149.016 142.145C149.226 142.041 149.33 141.832 149.435 141.622C151.006 140.576 151.948 139.007 152.996 137.647C153.414 137.961 153.205 138.484 153.205 138.798C153.205 141.413 153.205 144.028 153.205 146.539C153.205 147.69 153.205 148.84 152.472 149.782C148.283 149.782 143.885 149.782 139.486 149.782Z" fill="#F4F4F4"/>
<path d="M153.309 113.064C153.309 105.846 153.309 98.7323 153.309 91.5142C153.309 85.133 153.309 78.7518 153.309 72.3706C154.566 72.3706 155.823 72.3706 157.079 72.3706C158.441 72.266 159.069 71.6383 159.069 70.383C159.069 69.3369 158.336 68.7092 156.975 68.7092C155.718 68.7092 154.566 68.7092 153.309 68.7092C153.309 65.5709 153.309 62.4326 153.309 59.1897C153.309 58.039 153.309 56.8883 152.576 55.8422C155.194 55.8422 157.812 55.8422 160.43 55.7376C162.211 55.7376 163.991 55.7376 165.771 55.7376C167.447 55.7376 167.866 56.156 167.866 57.8298C167.866 68.2908 167.866 78.7518 167.866 89.2128C167.866 89.5266 167.866 89.7358 167.866 90.0497C163.467 96.9539 159.174 103.858 154.775 110.762C154.356 111.599 153.833 112.332 153.309 113.064Z" fill="#E9E9E9"/>
<path d="M146.818 138.275C145.875 137.647 144.933 137.124 143.99 136.496C151.007 125.617 157.918 114.738 164.83 103.858C169.647 96.3262 174.36 88.6897 179.177 81.1578C180.224 81.6808 181.167 82.3085 182.214 83.0408C178.025 89.7358 173.836 96.3262 169.543 103.021C163.259 112.855 156.976 122.688 150.797 132.521C149.75 134.195 148.703 135.764 147.656 137.438C147.446 137.856 147.237 138.17 146.818 138.275Z" fill="#FA636F"/>
<path d="M116.97 64.6295C119.065 64.6295 121.159 64.6295 123.359 64.6295C125.453 64.6295 126.5 65.7802 126.605 67.8724C126.605 72.1614 126.605 76.4504 126.605 80.7394C126.605 82.727 125.453 83.8777 123.463 83.8777C119.17 83.8777 114.771 83.8777 110.478 83.8777C108.488 83.8777 107.336 82.727 107.336 80.7394C107.336 76.4504 107.336 72.0568 107.336 67.7678C107.336 65.8848 108.488 64.7341 110.373 64.6295C112.572 64.6295 114.771 64.6295 116.97 64.6295ZM115.504 79.1702C116.656 79.1702 117.285 78.7518 117.808 78.0195C119.17 76.1365 120.531 74.3582 121.892 72.4752C122.625 71.4291 122.521 70.383 121.578 69.7553C120.74 69.1277 119.798 69.3369 118.96 70.383C118.227 71.3245 117.599 72.266 116.866 73.1029C116.447 73.6259 116.133 74.4628 115.714 74.5674C114.981 74.672 114.876 73.6259 114.352 73.2075C114.143 72.9983 113.933 72.789 113.724 72.6844C112.467 72.0568 111.106 72.8936 111.211 74.2536C111.211 75.2997 113.933 78.7518 114.876 78.961C115.19 79.1702 115.504 79.1702 115.504 79.1702Z" fill="#68B49E"/>
<path d="M116.867 141.099C114.668 141.099 112.573 141.099 110.374 141.099C108.28 141.099 107.232 139.949 107.232 137.856C107.232 133.567 107.232 129.278 107.232 124.989C107.232 123.002 108.384 121.851 110.374 121.851C114.668 121.851 119.066 121.851 123.36 121.851C125.349 121.851 126.501 123.002 126.501 124.989C126.501 129.278 126.501 133.672 126.501 137.961C126.501 139.844 125.349 140.995 123.36 141.099C121.265 141.099 119.066 141.099 116.867 141.099ZM115.715 136.287C116.657 136.287 117.286 135.869 117.809 135.241C119.276 133.358 120.637 131.475 121.998 129.488C122.731 128.546 122.522 127.5 121.684 126.872C120.846 126.245 119.904 126.454 119.171 127.395C118.438 128.232 117.809 129.174 117.181 130.115C116.762 130.743 116.343 131.58 115.82 131.789C115.087 131.998 114.877 130.848 114.458 130.324C113.935 129.801 113.306 129.488 112.469 129.801C111.736 130.115 111.317 130.638 111.317 131.475C111.317 132.521 114.039 135.973 114.982 136.183C115.191 136.287 115.506 136.287 115.715 136.287Z" fill="#68B49E"/>
<path d="M126.501 103.021C126.501 105.113 126.501 107.206 126.501 109.193C126.501 111.39 125.349 112.436 123.255 112.436C118.961 112.436 114.772 112.436 110.479 112.436C108.384 112.436 107.232 111.285 107.232 109.193C107.232 104.904 107.232 100.72 107.232 96.4308C107.232 94.3386 108.384 93.1879 110.374 93.1879C114.668 93.1879 118.961 93.1879 123.255 93.1879C125.349 93.1879 126.501 94.3386 126.501 96.4308C126.501 98.6276 126.501 100.824 126.501 103.021ZM122.417 100.615C122.417 99.5691 122.103 99.0461 121.37 98.7323C120.637 98.4184 119.799 98.523 119.276 99.2553C118.438 100.301 117.705 101.348 116.972 102.394C115.82 103.963 115.82 103.963 114.563 102.498C113.83 101.661 112.887 101.452 112.05 102.08C111.212 102.707 111.107 103.754 111.736 104.59C112.364 105.532 112.992 106.369 113.725 107.31C114.877 108.775 116.762 108.775 117.809 107.31C119.171 105.427 120.637 103.544 121.998 101.661C122.208 101.243 122.417 100.824 122.417 100.615Z" fill="#68B49E"/>
<path d="M153.31 68.7092C154.566 68.7092 155.718 68.7092 156.975 68.7092C158.336 68.7092 159.07 69.3369 159.07 70.383C159.07 71.6383 158.441 72.266 157.08 72.3706C155.823 72.4752 154.566 72.3706 153.31 72.3706C147.55 72.3706 141.79 72.3706 136.031 72.3706C134.564 72.3706 133.727 71.8475 133.727 70.8014C133.622 69.4415 134.355 68.7092 135.821 68.7092C141.371 68.7092 147.026 68.7092 152.577 68.7092C152.891 68.7092 153.1 68.7092 153.31 68.7092Z" fill="#DDE9FA"/>
<path d="M142.837 97.2677C145.141 97.2677 147.55 97.2677 149.854 97.2677C151.111 97.2677 151.948 97.8954 151.948 99.0461C151.948 99.9876 151.006 100.929 149.854 100.929C145.141 100.929 140.324 100.929 135.612 100.929C134.46 100.929 133.727 100.197 133.727 99.1507C133.727 98 134.46 97.3723 135.612 97.2677C138.02 97.2677 140.429 97.2677 142.837 97.2677Z" fill="#DDE9FA"/>
<path d="M140.848 108.356C139.173 108.356 137.497 108.356 135.822 108.356C134.67 108.356 133.937 107.833 133.832 106.892C133.622 105.636 134.041 105.113 135.507 104.8C135.926 104.695 136.24 104.695 136.659 104.695C139.592 104.695 142.524 104.695 145.456 104.695C145.875 104.695 146.399 104.8 146.817 104.904C147.865 105.113 148.388 105.741 148.388 106.683C148.388 107.519 147.236 108.356 146.294 108.461C144.304 108.356 142.524 108.356 140.848 108.356Z" fill="#DDE9FA"/>
<path d="M140.848 79.7979C139.172 79.7979 137.497 79.7979 135.821 79.7979C134.46 79.7979 133.727 79.1702 133.727 78.0195C133.727 76.7642 134.355 76.1365 135.716 76.1365C139.172 76.1365 142.523 76.1365 145.979 76.1365C147.341 76.1365 148.283 77.078 148.178 78.1241C148.074 78.961 147.026 79.7979 145.874 79.7979C144.199 79.7979 142.523 79.7979 140.848 79.7979Z" fill="#DDE9FA"/>
<path d="M115.506 79.1702C115.506 79.1702 115.297 79.1702 115.087 79.0656C114.04 78.7518 111.422 75.4043 111.422 74.3582C111.422 72.9983 112.783 72.0568 113.935 72.789C114.145 72.8936 114.354 73.1029 114.564 73.3121C115.087 73.7305 115.192 74.7766 115.925 74.672C116.449 74.5674 116.763 73.7305 117.077 73.2075C117.81 72.266 118.438 71.3245 119.171 70.4876C120.009 69.4415 120.952 69.2323 121.789 69.86C122.732 70.4876 122.837 71.5337 122.104 72.5798C120.742 74.4628 119.381 76.2412 118.019 78.1241C117.286 78.7518 116.658 79.1702 115.506 79.1702Z" fill="#F3F7F7"/>
<path d="M115.715 136.287C115.505 136.287 115.296 136.287 114.982 136.183C113.934 135.973 111.316 132.521 111.316 131.475C111.316 130.638 111.735 130.115 112.468 129.801C113.201 129.488 113.83 129.697 114.458 130.324C114.982 130.848 115.191 131.894 115.819 131.789C116.343 131.684 116.762 130.743 117.181 130.115C117.809 129.174 118.438 128.337 119.171 127.395C119.904 126.454 120.846 126.245 121.684 126.872C122.522 127.5 122.731 128.546 121.998 129.488C120.637 131.371 119.171 133.358 117.809 135.241C117.286 135.869 116.553 136.392 115.715 136.287Z" fill="#F3F7F7"/>
<path d="M122.417 100.615C122.417 100.824 122.207 101.243 121.893 101.661C120.532 103.544 119.171 105.427 117.704 107.31C116.552 108.775 114.772 108.775 113.62 107.31C112.887 106.473 112.259 105.532 111.63 104.59C111.002 103.649 111.107 102.603 111.945 102.08C112.782 101.452 113.725 101.661 114.458 102.498C115.715 103.963 115.715 103.963 116.867 102.394C117.6 101.347 118.437 100.301 119.171 99.2553C119.694 98.523 120.532 98.523 121.265 98.7322C122.103 99.0461 122.417 99.5691 122.417 100.615Z" fill="#F3F7F7"/>
</g>
<defs>
<clipPath id="clip0_1022_547">
<rect width="102" height="118" fill="white" transform="translate(91 39)"/>
</clipPath>
</defs>
</svg>
