<svg width="269" height="301" viewBox="0 0 269 301" fill="none" xmlns="http://www.w3.org/2000/svg">
<circle cx="134.5" cy="105.5" r="99" fill="#5B57A6" stroke="#0CEAC6" stroke-width="13"/>
<path d="M103.32 263.28C101.453 263.28 99.7735 262.96 98.2802 262.32C96.7868 261.653 95.6135 260.72 94.7602 259.52C93.9068 258.32 93.4802 256.92 93.4802 255.32H98.3602C98.4668 256.52 98.9335 257.507 99.7602 258.28C100.613 259.053 101.8 259.44 103.32 259.44C104.893 259.44 106.12 259.067 107 258.32C107.88 257.547 108.32 256.56 108.32 255.36C108.32 254.427 108.04 253.667 107.48 253.08C106.947 252.493 106.267 252.04 105.44 251.72C104.64 251.4 103.52 251.053 102.08 250.68C100.267 250.2 98.7868 249.72 97.6402 249.24C96.5202 248.733 95.5602 247.96 94.7602 246.92C93.9602 245.88 93.5602 244.493 93.5602 242.76C93.5602 241.16 93.9602 239.76 94.7602 238.56C95.5602 237.36 96.6802 236.44 98.1202 235.8C99.5602 235.16 101.227 234.84 103.12 234.84C105.813 234.84 108.013 235.52 109.72 236.88C111.453 238.213 112.413 240.053 112.6 242.4H107.56C107.48 241.387 107 240.52 106.12 239.8C105.24 239.08 104.08 238.72 102.64 238.72C101.333 238.72 100.267 239.053 99.4402 239.72C98.6135 240.387 98.2002 241.347 98.2002 242.6C98.2002 243.453 98.4535 244.16 98.9602 244.72C99.4935 245.253 100.16 245.68 100.96 246C101.76 246.32 102.853 246.667 104.24 247.04C106.08 247.547 107.573 248.053 108.72 248.56C109.893 249.067 110.88 249.853 111.68 250.92C112.507 251.96 112.92 253.36 112.92 255.12C112.92 256.533 112.533 257.867 111.76 259.12C111.013 260.373 109.907 261.387 108.44 262.16C107 262.907 105.293 263.28 103.32 263.28ZM123.621 244.68V256.88C123.621 257.707 123.807 258.307 124.181 258.68C124.581 259.027 125.247 259.2 126.181 259.2H128.981V263H125.381C123.327 263 121.754 262.52 120.661 261.56C119.567 260.6 119.021 259.04 119.021 256.88V244.68H116.421V240.96H119.021V235.48H123.621V240.96H128.981V244.68H123.621ZM142.744 263.36C140.664 263.36 138.784 262.893 137.104 261.96C135.424 261 134.104 259.667 133.144 257.96C132.184 256.227 131.704 254.227 131.704 251.96C131.704 249.72 132.197 247.733 133.184 246C134.17 244.267 135.517 242.933 137.224 242C138.93 241.067 140.837 240.6 142.944 240.6C145.05 240.6 146.957 241.067 148.664 242C150.37 242.933 151.717 244.267 152.704 246C153.69 247.733 154.184 249.72 154.184 251.96C154.184 254.2 153.677 256.187 152.664 257.92C151.65 259.653 150.264 261 148.504 261.96C146.77 262.893 144.85 263.36 142.744 263.36ZM142.744 259.4C143.917 259.4 145.01 259.12 146.024 258.56C147.064 258 147.904 257.16 148.544 256.04C149.184 254.92 149.504 253.56 149.504 251.96C149.504 250.36 149.197 249.013 148.584 247.92C147.97 246.8 147.157 245.96 146.144 245.4C145.13 244.84 144.037 244.56 142.864 244.56C141.69 244.56 140.597 244.84 139.584 245.4C138.597 245.96 137.81 246.8 137.224 247.92C136.637 249.013 136.344 250.36 136.344 251.96C136.344 254.333 136.944 256.173 138.144 257.48C139.37 258.76 140.904 259.4 142.744 259.4ZM167.411 252L177.571 263H171.411L163.251 253.52V263H158.691V233.4H163.251V250.6L171.251 240.96H177.571L167.411 252Z" fill="#06314D"/>
<path d="M187.451 112.414C187.451 123.235 187.451 133.985 187.451 144.806C187.451 147.917 186.738 148.908 183.745 149.968C168.352 155.485 152.959 160.931 137.567 166.447C137.21 166.589 136.783 166.518 136.569 166.942C136.141 166.942 135.785 166.942 135.357 166.942C135.357 146.503 135.357 125.993 135.357 105.553C135.357 105.058 135.357 104.493 135.429 103.997C135.928 104.068 136.07 104.422 136.213 104.775C139.491 110.363 142.769 115.879 146.047 121.466C148.256 125.215 152.033 126.559 156.166 124.861C166.571 120.759 176.975 116.586 187.451 112.414Z" fill="#FD9901"/>
<path d="M135.357 104.068C135.357 104.563 135.286 105.129 135.286 105.624C135.286 126.063 135.286 146.574 135.286 167.013C135.072 167.013 134.787 167.013 134.573 167.013L134.502 166.942C118.539 161.214 102.576 155.556 86.6843 149.827C84.1189 148.908 83.4062 147.917 83.4062 145.23C83.4062 134.692 83.4062 124.225 83.4062 113.687C83.4062 113.333 83.4063 112.979 83.4775 112.626C84.0476 112.626 84.5465 112.838 85.0453 113.05C94.8796 117.011 104.714 120.901 114.477 124.932C118.824 126.7 122.173 125.215 124.169 122.244C126.663 118.496 128.73 114.535 131.01 110.716C132.435 108.312 133.718 105.836 135.286 103.573C135.357 103.785 135.357 103.927 135.357 104.068Z" fill="#FEC100"/>
<path d="M135.357 103.644C133.718 105.907 132.507 108.382 131.082 110.787C128.801 114.606 126.663 118.637 124.24 122.315C122.245 125.286 118.896 126.771 114.549 125.003C104.714 121.042 94.8801 117.081 85.117 113.121C84.6182 112.909 84.1194 112.697 83.5492 112.697C82.1952 111.777 80.6275 111.353 79.2022 110.787C76.8505 109.868 75.1402 108.312 74.3563 105.836C74.2851 105.624 74.2851 105.341 74 105.27C74 104.139 74 103.078 74 101.946C77.0643 95.7933 80.77 90.0646 84.1194 84.053C91.602 86.882 99.0846 89.711 106.638 92.4693C116.259 96.0762 125.879 99.6832 135.5 103.29V103.361C135.357 103.502 135.357 103.573 135.357 103.644Z" fill="#FD9900"/>
<path d="M135.357 103.644C135.357 103.573 135.357 103.502 135.357 103.432C141.058 101.31 146.76 99.1174 152.461 96.9957C163.863 92.6815 175.265 88.438 186.667 84.1238C189.731 89.4281 192.867 94.6617 195.86 99.9661C198.069 103.927 196.43 108.665 192.154 110.504C190.586 111.211 189.018 111.777 187.379 112.484C176.975 116.657 166.499 120.83 156.095 125.003C151.962 126.7 148.185 125.286 145.976 121.608C142.698 116.021 139.419 110.433 136.141 104.917C135.928 104.563 135.785 104.21 135.357 104.139C135.357 103.927 135.357 103.785 135.357 103.644Z" fill="#FC6601"/>
<path d="M186.667 84.053C175.265 88.3673 163.863 92.6107 152.461 96.9249C146.76 99.0467 141.058 101.239 135.357 103.361V103.29C135.357 100.178 135.357 97.1371 135.357 94.0252C136.355 93.9545 137.424 93.9545 138.493 93.813C146.76 92.6815 152.888 88.438 157.093 81.2948C158.518 78.8901 159.231 76.2026 159.943 73.5151C167.996 76.4148 176.049 79.2438 184.173 82.1435C185.099 82.5678 186.097 82.9922 186.667 84.053Z" fill="#FEC101"/>
<path d="M135.357 94.096C135.357 97.2079 135.357 100.249 135.357 103.361C125.737 99.7539 116.116 96.147 106.496 92.54C99.0131 89.711 91.5304 86.8821 83.9766 84.1238C84.4041 83.0629 85.3306 82.78 86.257 82.4264C94.4522 79.5267 102.647 76.5563 110.843 73.6566C110.985 74.2931 111.128 74.8589 111.27 75.4954C113.836 86.1748 124.454 94.3789 135.357 94.0253V94.096Z" fill="#FED801"/>
<path d="M159.873 73.5858C159.231 76.2734 158.448 78.9609 157.022 81.3655C152.818 88.5087 146.689 92.7522 138.423 93.8838C137.354 94.0252 136.356 94.0252 135.287 94.096V94.0252C135.287 91.6913 135.287 89.2867 135.287 86.9528C136.214 86.882 137.14 86.8113 137.995 86.7406C148.613 85.1847 155.312 74.2931 151.963 64.038C150.11 58.3093 144.338 52.1563 135.358 52.0855C135.358 49.7516 135.358 47.347 135.358 45.0131C145.549 45.1545 152.96 49.9638 157.592 58.8044C159.873 63.1186 160.514 67.7864 159.873 72.5957C159.802 72.9493 159.873 73.3029 159.873 73.5858Z" fill="#FC502A"/>
<path d="M135.357 45.0131C135.357 47.347 135.357 49.7516 135.357 52.0855V52.1563C135.001 52.1563 134.644 52.0855 134.288 52.1563C123.812 52.6513 115.973 62.7649 118.182 72.9493C119.964 81.1534 127.304 87.165 135.357 86.882V86.9528C135.357 89.2867 135.357 91.6913 135.357 94.0252C124.454 94.3789 113.835 86.1748 111.341 75.4247C111.199 74.7881 111.056 74.2223 110.914 73.5858C110.415 69.4131 110.629 65.311 112.054 61.2797C115.546 51.5197 125.38 44.6594 135.357 45.0131Z" fill="#E60D28"/>
<path d="M135.357 52.0855C144.337 52.1562 150.109 58.3093 152.033 64.038C155.382 74.2223 148.684 85.1846 138.065 86.7406C137.139 86.882 136.213 86.882 135.357 86.9528V86.882C135.357 83.6994 135.357 80.5875 135.357 77.4049C135.357 77.3342 135.357 77.2635 135.357 77.1928C138.849 73.7272 142.412 70.3325 145.904 66.7962C146.617 66.089 146.973 65.0988 146.76 64.038C146.546 62.6235 145.762 61.4919 144.337 61.0675C142.84 60.5725 141.486 60.9261 140.346 62.0577C138.707 63.6844 136.996 65.311 135.357 67.0084C135.357 62.0577 135.357 57.1777 135.357 52.227C135.357 52.1562 135.357 52.0855 135.357 52.0855Z" fill="#0FB0C0"/>
<path d="M135.357 77.4049C135.357 80.5876 135.357 83.6994 135.357 86.882C127.305 87.1649 119.964 81.1534 118.183 72.9493C115.974 62.7649 123.884 52.6513 134.288 52.1562C134.645 52.1562 135.001 52.1562 135.357 52.1562C135.357 57.107 135.357 61.987 135.357 66.9377C135.357 67.0791 135.286 67.1499 135.286 67.2913C134.787 67.7864 134.217 68.2815 133.718 68.7765C132.008 70.4739 132.435 70.4032 130.868 68.8473C130.654 68.6351 130.44 68.4229 130.155 68.2107C128.445 66.7962 126.378 66.867 125.024 68.3522C123.67 69.9081 123.741 71.8884 125.309 73.4444C126.449 74.6467 127.661 75.7783 128.872 76.9806C131.224 79.3852 132.72 79.456 135.357 77.4049Z" fill="#00C6C8"/>
<path d="M146.759 64.1087C146.545 62.6942 145.761 61.5627 144.336 61.1383C142.839 60.6432 141.485 60.9969 140.345 62.1284C138.706 63.7551 136.996 65.3818 135.357 67.0792C135.357 67.2206 135.285 67.2913 135.285 67.4328C134.787 67.9279 134.217 68.4229 133.718 68.918C132.007 70.6154 132.435 70.5447 130.867 68.9887C130.653 68.7766 130.44 68.5644 130.155 68.3522C128.444 66.9377 126.378 67.0084 125.024 68.4937C123.67 70.0496 123.741 72.0299 125.309 73.5858C126.449 74.7882 127.66 75.9198 128.872 77.1221C131.295 79.5267 132.72 79.5974 135.357 77.5464C135.357 77.4757 135.357 77.405 135.357 77.3342C138.849 73.8687 142.412 70.474 145.904 66.9377C146.545 66.089 146.901 65.1696 146.759 64.1087Z" fill="#FEFEFE"/>
</svg>
