<svg width="269" height="307" viewBox="0 0 269 307" fill="none" xmlns="http://www.w3.org/2000/svg">
<circle cx="134.5" cy="105.5" r="99" fill="#5B57A6" stroke="#0CEAC6" stroke-width="13"/>
<path d="M37.9556 243.48C37.9556 244.893 37.6223 246.227 36.9556 247.48C36.289 248.733 35.2223 249.76 33.7556 250.56C32.289 251.333 30.409 251.72 28.1156 251.72H23.0756V263H18.5156V235.2H28.1156C30.249 235.2 32.049 235.573 33.5156 236.32C35.009 237.04 36.1156 238.027 36.8356 239.28C37.5823 240.533 37.9556 241.933 37.9556 243.48ZM28.1156 248C29.849 248 31.1423 247.613 31.9956 246.84C32.849 246.04 33.2756 244.92 33.2756 243.48C33.2756 240.44 31.5556 238.92 28.1156 238.92H23.0756V248H28.1156ZM62.5047 251.44C62.5047 252.267 62.4514 253.013 62.3447 253.68H45.5047C45.638 255.44 46.2914 256.853 47.4647 257.92C48.638 258.987 50.078 259.52 51.7847 259.52C54.238 259.52 55.9714 258.493 56.9847 256.44H61.9047C61.238 258.467 60.0247 260.133 58.2647 261.44C56.5314 262.72 54.3714 263.36 51.7847 263.36C49.678 263.36 47.7847 262.893 46.1047 261.96C44.4514 261 43.1447 259.667 42.1847 257.96C41.2514 256.227 40.7847 254.227 40.7847 251.96C40.7847 249.693 41.238 247.707 42.1447 246C43.078 244.267 44.3714 242.933 46.0247 242C47.7047 241.067 49.6247 240.6 51.7847 240.6C53.8647 240.6 55.718 241.053 57.3447 241.96C58.9714 242.867 60.238 244.147 61.1447 245.8C62.0514 247.427 62.5047 249.307 62.5047 251.44ZM57.7447 250C57.718 248.32 57.118 246.973 55.9447 245.96C54.7714 244.947 53.318 244.44 51.5847 244.44C50.0114 244.44 48.6647 244.947 47.5447 245.96C46.4247 246.947 45.758 248.293 45.5447 250H57.7447ZM78.1122 240.6C79.8455 240.6 81.3922 240.96 82.7522 241.68C84.1389 242.4 85.2189 243.467 85.9922 244.88C86.7655 246.293 87.1522 248 87.1522 250V263H82.6322V250.68C82.6322 248.707 82.1389 247.2 81.1522 246.16C80.1655 245.093 78.8189 244.56 77.1122 244.56C75.4055 244.56 74.0455 245.093 73.0322 246.16C72.0455 247.2 71.5522 248.707 71.5522 250.68V263H66.9922V240.96H71.5522V243.48C72.2989 242.573 73.2455 241.867 74.3922 241.36C75.5655 240.853 76.8055 240.6 78.1122 240.6ZM101.849 240.6C103.555 240.6 105.062 240.947 106.369 241.64C107.702 242.307 108.742 243.147 109.489 244.16V240.96H114.089V263.36C114.089 265.387 113.662 267.187 112.809 268.76C111.955 270.36 110.715 271.613 109.089 272.52C107.489 273.427 105.569 273.88 103.329 273.88C100.342 273.88 97.8621 273.173 95.8888 271.76C93.9154 270.373 92.7954 268.48 92.5288 266.08H97.0488C97.3954 267.227 98.1288 268.147 99.2488 268.84C100.395 269.56 101.755 269.92 103.329 269.92C105.169 269.92 106.649 269.36 107.769 268.24C108.915 267.12 109.489 265.493 109.489 263.36V259.68C108.715 260.72 107.662 261.6 106.329 262.32C105.022 263.013 103.529 263.36 101.849 263.36C99.9288 263.36 98.1688 262.88 96.5688 261.92C94.9954 260.933 93.7421 259.573 92.8088 257.84C91.9021 256.08 91.4488 254.093 91.4488 251.88C91.4488 249.667 91.9021 247.707 92.8088 246C93.7421 244.293 94.9954 242.973 96.5688 242.04C98.1688 241.08 99.9288 240.6 101.849 240.6ZM109.489 251.96C109.489 250.44 109.169 249.12 108.529 248C107.915 246.88 107.102 246.027 106.089 245.44C105.075 244.853 103.982 244.56 102.809 244.56C101.635 244.56 100.542 244.853 99.5288 245.44C98.5154 246 97.6888 246.84 97.0488 247.96C96.4354 249.053 96.1288 250.36 96.1288 251.88C96.1288 253.4 96.4354 254.733 97.0488 255.88C97.6888 257.027 98.5154 257.907 99.5288 258.52C100.569 259.107 101.662 259.4 102.809 259.4C103.982 259.4 105.075 259.107 106.089 258.52C107.102 257.933 107.915 257.08 108.529 255.96C109.169 254.813 109.489 253.48 109.489 251.96ZM118.558 251.88C118.558 249.667 119.011 247.707 119.918 246C120.851 244.293 122.105 242.973 123.678 242.04C125.278 241.08 127.038 240.6 128.958 240.6C130.691 240.6 132.198 240.947 133.478 241.64C134.785 242.307 135.825 243.147 136.598 244.16V240.96H141.198V263H136.598V259.72C135.825 260.76 134.771 261.627 133.438 262.32C132.105 263.013 130.585 263.36 128.878 263.36C126.985 263.36 125.251 262.88 123.678 261.92C122.105 260.933 120.851 259.573 119.918 257.84C119.011 256.08 118.558 254.093 118.558 251.88ZM136.598 251.96C136.598 250.44 136.278 249.12 135.638 248C135.025 246.88 134.211 246.027 133.198 245.44C132.185 244.853 131.091 244.56 129.918 244.56C128.745 244.56 127.651 244.853 126.638 245.44C125.625 246 124.798 246.84 124.158 247.96C123.545 249.053 123.238 250.36 123.238 251.88C123.238 253.4 123.545 254.733 124.158 255.88C124.798 257.027 125.625 257.907 126.638 258.52C127.678 259.107 128.771 259.4 129.918 259.4C131.091 259.4 132.185 259.107 133.198 258.52C134.211 257.933 135.025 257.08 135.638 255.96C136.278 254.813 136.598 253.48 136.598 251.96ZM152.508 244.68V256.88C152.508 257.707 152.694 258.307 153.068 258.68C153.468 259.027 154.134 259.2 155.068 259.2H157.868V263H154.268C152.214 263 150.641 262.52 149.548 261.56C148.454 260.6 147.908 259.04 147.908 256.88V244.68H145.308V240.96H147.908V235.48H152.508V240.96H157.868V244.68H152.508ZM182.03 240.96V263H177.47V260.4C176.75 261.307 175.804 262.027 174.63 262.56C173.484 263.067 172.257 263.32 170.95 263.32C169.217 263.32 167.657 262.96 166.27 262.24C164.91 261.52 163.83 260.453 163.03 259.04C162.257 257.627 161.87 255.92 161.87 253.92V240.96H166.39V253.24C166.39 255.213 166.884 256.733 167.87 257.8C168.857 258.84 170.204 259.36 171.91 259.36C173.617 259.36 174.964 258.84 175.95 257.8C176.964 256.733 177.47 255.213 177.47 253.24V240.96H182.03ZM192.607 244.16C193.274 243.04 194.154 242.173 195.247 241.56C196.367 240.92 197.687 240.6 199.207 240.6V245.32H198.047C196.26 245.32 194.9 245.773 193.967 246.68C193.06 247.587 192.607 249.16 192.607 251.4V263H188.047V240.96H192.607V244.16ZM201.878 251.88C201.878 249.667 202.332 247.707 203.238 246C204.172 244.293 205.425 242.973 206.998 242.04C208.598 241.08 210.358 240.6 212.278 240.6C214.012 240.6 215.518 240.947 216.798 241.64C218.105 242.307 219.145 243.147 219.918 244.16V240.96H224.518V263H219.918V259.72C219.145 260.76 218.092 261.627 216.758 262.32C215.425 263.013 213.905 263.36 212.198 263.36C210.305 263.36 208.572 262.88 206.998 261.92C205.425 260.933 204.172 259.573 203.238 257.84C202.332 256.08 201.878 254.093 201.878 251.88ZM219.918 251.96C219.918 250.44 219.598 249.12 218.958 248C218.345 246.88 217.532 246.027 216.518 245.44C215.505 244.853 214.412 244.56 213.238 244.56C212.065 244.56 210.972 244.853 209.958 245.44C208.945 246 208.118 246.84 207.478 247.96C206.865 249.053 206.558 250.36 206.558 251.88C206.558 253.4 206.865 254.733 207.478 255.88C208.118 257.027 208.945 257.907 209.958 258.52C210.998 259.107 212.092 259.4 213.238 259.4C214.412 259.4 215.505 259.107 216.518 258.52C217.532 257.933 218.345 257.08 218.958 255.96C219.598 254.813 219.918 253.48 219.918 251.96ZM241.628 240.6C243.361 240.6 244.908 240.96 246.268 241.68C247.654 242.4 248.734 243.467 249.508 244.88C250.281 246.293 250.668 248 250.668 250V263H246.148V250.68C246.148 248.707 245.654 247.2 244.668 246.16C243.681 245.093 242.334 244.56 240.628 244.56C238.921 244.56 237.561 245.093 236.548 246.16C235.561 247.2 235.068 248.707 235.068 250.68V263H230.508V240.96H235.068V243.48C235.814 242.573 236.761 241.867 237.908 241.36C239.081 240.853 240.321 240.6 241.628 240.6ZM107.589 278.2V281.92H100.189V306H95.6289V281.92H88.1889V278.2H107.589ZM121.767 306.36C119.687 306.36 117.807 305.893 116.127 304.96C114.447 304 113.127 302.667 112.167 300.96C111.207 299.227 110.727 297.227 110.727 294.96C110.727 292.72 111.22 290.733 112.207 289C113.194 287.267 114.54 285.933 116.247 285C117.954 284.067 119.86 283.6 121.967 283.6C124.074 283.6 125.98 284.067 127.687 285C129.394 285.933 130.74 287.267 131.727 289C132.714 290.733 133.207 292.72 133.207 294.96C133.207 297.2 132.7 299.187 131.687 300.92C130.674 302.653 129.287 304 127.527 304.96C125.794 305.893 123.874 306.36 121.767 306.36ZM121.767 302.4C122.94 302.4 124.034 302.12 125.047 301.56C126.087 301 126.927 300.16 127.567 299.04C128.207 297.92 128.527 296.56 128.527 294.96C128.527 293.36 128.22 292.013 127.607 290.92C126.994 289.8 126.18 288.96 125.167 288.4C124.154 287.84 123.06 287.56 121.887 287.56C120.714 287.56 119.62 287.84 118.607 288.4C117.62 288.96 116.834 289.8 116.247 290.92C115.66 292.013 115.367 293.36 115.367 294.96C115.367 297.333 115.967 299.173 117.167 300.48C118.394 301.76 119.927 302.4 121.767 302.4ZM146.435 295L156.595 306H150.435L142.275 296.52V306H137.715V276.4H142.275V293.6L150.275 283.96H156.595L146.435 295ZM169.423 306.36C167.343 306.36 165.463 305.893 163.783 304.96C162.103 304 160.783 302.667 159.823 300.96C158.863 299.227 158.383 297.227 158.383 294.96C158.383 292.72 158.877 290.733 159.863 289C160.85 287.267 162.197 285.933 163.903 285C165.61 284.067 167.517 283.6 169.623 283.6C171.73 283.6 173.637 284.067 175.343 285C177.05 285.933 178.397 287.267 179.383 289C180.37 290.733 180.863 292.72 180.863 294.96C180.863 297.2 180.357 299.187 179.343 300.92C178.33 302.653 176.943 304 175.183 304.96C173.45 305.893 171.53 306.36 169.423 306.36ZM169.423 302.4C170.597 302.4 171.69 302.12 172.703 301.56C173.743 301 174.583 300.16 175.223 299.04C175.863 297.92 176.183 296.56 176.183 294.96C176.183 293.36 175.877 292.013 175.263 290.92C174.65 289.8 173.837 288.96 172.823 288.4C171.81 287.84 170.717 287.56 169.543 287.56C168.37 287.56 167.277 287.84 166.263 288.4C165.277 288.96 164.49 289.8 163.903 290.92C163.317 292.013 163.023 293.36 163.023 294.96C163.023 297.333 163.623 299.173 164.823 300.48C166.05 301.76 167.583 302.4 169.423 302.4Z" fill="#06314D"/>
<g clip-path="url(#clip0_1022_594)">
<path d="M186.334 74.0457H98.8867V137.088H186.334V74.0457Z" fill="#B9BBC1"/>
<path d="M173.701 74.0457H98.9766V137.088H173.701V74.0457Z" fill="#E9EAEB"/>
<path d="M100.229 47C99.2436 47 98.3477 47.8662 98.3477 49.0212V56.9135H173.61V47H100.229Z" fill="#FDC74F"/>
<path d="M186.332 49.6949C186.332 48.0587 185.167 47 183.734 47H173.609V56.9135H186.243V49.6949H186.332Z" fill="#FCA629"/>
<path d="M96.2882 137.088C93.7795 137.088 91.7188 139.302 91.7188 141.997V147.002H181.316V137.088H96.2882Z" fill="#8B8996"/>
<path d="M193.5 142.478C193.5 139.494 191.26 137.088 188.483 137.088H181.404V147.002H193.5V142.478Z" fill="#706F7F"/>
<path d="M98.7066 85.7879C94.6747 85.7879 91.4492 82.323 91.4492 77.9918V71.832H105.964V77.9918C105.964 82.323 102.649 85.7879 98.7066 85.7879Z" fill="#E60D28"/>
<path d="M113.31 85.7879C109.278 85.7879 106.053 82.323 106.053 77.9918V71.832H120.568V77.9918C120.568 82.323 117.342 85.7879 113.31 85.7879Z" fill="#F2F2F2"/>
<path d="M127.826 85.7879C123.794 85.7879 120.568 82.323 120.568 77.9918V71.832H135.083V77.9918C135.083 82.323 131.768 85.7879 127.826 85.7879Z" fill="#E60D28"/>
<path d="M142.429 85.7879C138.397 85.7879 135.172 82.323 135.172 77.9918V71.832H149.687V77.9918C149.687 82.323 146.372 85.7879 142.429 85.7879Z" fill="#F2F2F2"/>
<path d="M156.945 85.7879C152.913 85.7879 149.688 82.323 149.688 77.9918V71.832H164.202V77.9918C164.202 82.323 160.887 85.7879 156.945 85.7879Z" fill="#E60D28"/>
<path d="M186.064 85.7879C182.032 85.7879 178.807 82.323 178.807 77.9918V71.832H193.321V77.9918C193.321 82.323 190.006 85.7879 186.064 85.7879Z" fill="#E60D28"/>
<path d="M171.461 85.7879C167.429 85.7879 164.203 82.323 164.203 77.9918V71.832H178.718V77.9918C178.718 82.323 175.492 85.7879 171.461 85.7879Z" fill="#F2F2F2"/>
<path d="M105.964 71.8319H91.4492L98.4378 56.9135H111.161L105.964 71.8319Z" fill="#FC502A"/>
<path d="M135.083 71.8319H120.568L124.063 56.9135H136.069L135.083 71.8319Z" fill="#FC502A"/>
<path d="M120.568 71.8319H106.053L111.16 56.9135H123.883L120.568 71.8319Z" fill="white"/>
<path d="M178.808 71.8319H193.233L186.244 56.9135H173.521L178.808 71.8319Z" fill="#FC502A"/>
<path d="M149.687 71.8319H164.112L160.618 56.9135H148.701L149.687 71.8319Z" fill="#FC502A"/>
<path d="M164.112 71.8319H178.627L173.52 56.9135H160.797L164.112 71.8319Z" fill="white"/>
<path d="M149.688 71.8319H135.084L136.07 56.9135H148.792L149.688 71.8319Z" fill="white"/>
<path d="M116.269 97.434H107.757C106.771 97.434 105.965 98.3002 105.965 99.3589V137.281H116H117.702V97.434H116.269Z" fill="#00C6C8"/>
<path d="M124.781 97.3377H117.613V137.184H126.573V99.3589C126.573 98.2039 125.767 97.3377 124.781 97.3377Z" fill="#0FB0C0"/>
<path d="M120.838 119.86C120.031 119.86 119.404 119.186 119.404 118.32V115.047C119.404 114.181 120.031 113.507 120.838 113.507C121.644 113.507 122.271 114.181 122.271 115.047V118.32C122.271 119.186 121.644 119.86 120.838 119.86Z" fill="white"/>
<path d="M134.906 97.434C133.651 97.434 132.576 98.4927 132.576 99.9364V124.48C132.576 125.827 133.562 126.982 134.906 126.982H168.953V97.434H134.906Z" fill="#00C6C8"/>
<path d="M180.063 124.48V99.9364C180.063 98.5889 179.078 97.434 177.734 97.434H168.953V126.886H177.734C178.988 126.982 180.063 125.827 180.063 124.48Z" fill="#0FB0C0"/>
<path d="M101.952 165C101.477 165 101.097 165 100.622 165C98.4363 165 96.8207 163.268 96.7257 161.15C96.7257 160.765 96.7257 160.476 96.7257 160.091V159.995C95.6803 159.61 94.635 159.225 93.6847 158.744C93.3996 159.033 93.2095 159.321 92.9244 159.514C92.1641 160.284 91.2138 160.669 90.1685 160.669C89.1231 160.669 88.1728 160.284 87.4125 159.514C86.7473 158.84 86.0821 158.166 85.4168 157.493C83.8963 155.856 83.8963 153.546 85.4168 151.91C85.6069 151.622 85.892 151.429 86.0821 151.14L86.1771 151.044C85.7019 150.082 85.2268 149.023 84.9417 147.964H84.3715C84.1814 147.964 83.9914 147.964 83.8013 147.964C81.6156 147.964 80 146.232 80 144.018C80 143.055 80 142.189 80 141.227C80 139.013 81.7106 137.281 83.8963 137.281C84.0864 137.281 84.2765 137.281 84.4665 137.281H85.0367C85.4168 136.222 85.797 135.163 86.2721 134.201L86.1771 134.104C85.892 133.912 85.6069 133.623 85.4168 133.431C83.8963 131.794 83.8963 129.485 85.4168 127.848C86.0821 127.175 86.6523 126.597 87.3175 125.923C88.0778 125.153 89.0281 124.768 90.0734 124.768C91.1188 124.768 92.0691 125.153 92.8294 125.923C93.1145 126.116 93.3045 126.405 93.4946 126.597L93.5896 126.693C94.54 126.212 95.5853 125.731 96.6307 125.442C96.6307 125.346 96.6307 125.346 96.6307 125.25C96.6307 124.961 96.6307 124.576 96.6307 124.287C96.6307 122.073 98.3413 120.437 100.527 120.341C100.717 120.341 100.907 120.341 101.097 120.341H102.808C102.998 120.341 103.188 120.341 103.378 120.341C105.564 120.341 107.179 122.073 107.274 124.191C107.274 124.576 107.274 124.865 107.274 125.25V125.346C108.32 125.731 109.365 126.116 110.315 126.597C110.315 126.597 110.315 126.597 110.41 126.501C110.695 126.212 110.886 126.02 111.171 125.731C111.931 124.961 112.881 124.576 113.927 124.576C114.972 124.576 115.922 124.961 116.683 125.731C117.348 126.405 118.013 127.078 118.678 127.752C120.199 129.388 120.199 131.698 118.678 133.334C118.393 133.623 118.203 133.816 117.918 134.104C117.918 134.104 117.918 134.104 117.823 134.201C118.298 135.163 118.773 136.222 119.058 137.281H119.629C119.819 137.281 120.009 137.281 120.199 137.281C122.384 137.281 124 139.013 124 141.227C124 142.189 124 143.055 124 144.018C124 146.232 122.289 147.964 120.104 147.964C119.914 147.964 119.724 147.964 119.533 147.964H118.963C118.583 149.023 118.203 150.082 117.728 151.044C118.013 151.333 118.203 151.525 118.488 151.814C120.009 153.45 120.009 155.76 118.488 157.396C117.823 158.07 117.253 158.744 116.587 159.321C115.827 160.091 114.877 160.476 113.832 160.476C112.786 160.476 111.836 160.091 111.076 159.321C110.79 159.033 110.6 158.84 110.315 158.551C109.365 159.033 108.32 159.514 107.274 159.803C107.274 160.188 107.274 160.573 107.274 160.861C107.274 163.075 105.564 164.711 103.378 164.808C102.808 165 102.428 165 101.952 165ZM101.952 135.259C97.9611 135.259 94.635 138.532 94.635 142.67C94.635 146.713 97.8661 150.082 101.952 150.082C105.944 150.082 109.27 146.809 109.27 142.67C109.27 140.649 108.51 138.821 107.179 137.473C105.754 136.029 103.948 135.259 101.952 135.259Z" fill="#0FB0C0"/>
<path d="M101.954 122.747C102.429 122.747 102.809 122.747 103.284 122.747C104.139 122.747 104.805 123.421 104.805 124.287C104.805 124.865 104.805 125.538 104.805 126.116C104.805 126.886 105.185 127.367 105.85 127.56C107.18 127.945 108.416 128.426 109.651 129.099C110.412 129.484 110.887 129.484 111.457 128.811C111.837 128.426 112.217 128.041 112.692 127.56C113.358 126.886 114.213 126.886 114.878 127.56C115.543 128.233 116.113 128.811 116.779 129.484C117.444 130.158 117.444 131.024 116.779 131.698C116.399 132.179 115.923 132.564 115.543 132.949C114.973 133.527 114.973 134.008 115.353 134.682C116.018 135.933 116.589 137.184 116.969 138.532C117.159 139.206 117.634 139.591 118.394 139.591C118.964 139.591 119.63 139.591 120.2 139.591C121.055 139.591 121.72 140.264 121.72 141.13C121.72 141.997 121.72 142.959 121.72 143.825C121.72 144.788 121.15 145.365 120.2 145.365C119.63 145.365 118.964 145.365 118.394 145.365C117.634 145.365 117.159 145.75 116.969 146.424C116.589 147.772 116.113 149.023 115.353 150.274C114.973 150.948 115.068 151.525 115.638 152.103C116.018 152.488 116.399 152.873 116.874 153.354C117.539 154.028 117.539 154.894 116.874 155.568C116.208 156.241 115.638 156.819 114.973 157.493C114.308 158.166 113.453 158.166 112.787 157.493C112.407 157.108 112.027 156.723 111.647 156.338C110.982 155.664 110.507 155.664 109.746 156.049C108.606 156.723 107.37 157.204 106.04 157.589C105.185 157.878 104.9 158.263 104.9 159.129C104.9 159.706 104.9 160.284 104.9 160.765C104.9 161.728 104.234 162.305 103.379 162.305C102.524 162.305 101.573 162.305 100.718 162.305C99.8629 162.305 99.1977 161.631 99.1977 160.765C99.1977 160.188 99.1977 159.61 99.1977 159.033C99.1977 158.166 98.9126 157.781 98.0573 157.589C96.7268 157.204 95.4914 156.723 94.256 156.049C93.4957 155.664 93.0206 155.76 92.4504 156.338C92.0703 156.723 91.6901 157.108 91.215 157.589C90.5497 158.263 89.6944 158.263 89.0292 157.589C88.364 156.915 87.7938 156.338 87.1286 155.664C86.4633 154.99 86.4633 154.124 87.1286 153.45C87.5087 153.065 87.9839 152.584 88.364 152.199C88.9342 151.622 89.0292 151.14 88.6491 150.37C87.9839 149.119 87.4137 147.868 87.0335 146.52C86.8435 145.847 86.3683 145.462 85.7031 145.462C85.1329 145.462 84.4677 145.462 83.8975 145.462C83.0422 145.462 82.377 144.788 82.377 143.922C82.377 143.055 82.377 142.093 82.377 141.227C82.377 140.264 82.9471 139.687 83.8975 139.687C84.4677 139.687 85.1329 139.687 85.7031 139.687C86.4633 139.687 86.9385 139.302 87.1286 138.628C87.5087 137.281 87.9839 136.029 88.7441 134.778C89.1243 134.104 89.0292 133.527 88.459 132.949C87.8888 132.564 87.5087 132.179 87.1286 131.698C86.4633 131.024 86.4633 130.158 87.1286 129.484C87.7938 128.811 88.364 128.233 89.0292 127.56C89.6944 126.886 90.5497 126.886 91.215 127.56C91.5951 127.945 92.0703 128.426 92.4504 128.811C93.0206 129.388 93.4957 129.484 94.161 129.099C95.3964 128.426 96.7268 127.848 98.0573 127.463C98.7225 127.271 99.1027 126.79 99.1027 126.02C99.1027 125.442 99.1027 124.768 99.1027 124.191C99.1027 123.228 99.7679 122.651 100.623 122.651C101.098 122.747 101.478 122.747 101.954 122.747ZM92.2603 142.574C92.2603 147.964 96.5368 152.392 101.954 152.392C107.275 152.392 111.647 148.06 111.647 142.574C111.647 137.184 107.37 132.757 101.954 132.757C96.6318 132.853 92.2603 137.184 92.2603 142.574Z" fill="white"/>
</g>
<defs>
<clipPath id="clip0_1022_594">
<rect width="118" height="118" fill="white" transform="translate(75.5 47)"/>
</clipPath>
</defs>
</svg>
