<svg width="269" height="307" viewBox="0 0 269 307" fill="none" xmlns="http://www.w3.org/2000/svg">
<path d="M37.9556 243.48C37.9556 244.893 37.6223 246.227 36.9556 247.48C36.289 248.733 35.2223 249.76 33.7556 250.56C32.289 251.333 30.409 251.72 28.1156 251.72H23.0756V263H18.5156V235.2H28.1156C30.249 235.2 32.049 235.573 33.5156 236.32C35.009 237.04 36.1156 238.027 36.8356 239.28C37.5823 240.533 37.9556 241.933 37.9556 243.48ZM28.1156 248C29.849 248 31.1423 247.613 31.9956 246.84C32.849 246.04 33.2756 244.92 33.2756 243.48C33.2756 240.44 31.5556 238.92 28.1156 238.92H23.0756V248H28.1156ZM62.5047 251.44C62.5047 252.267 62.4514 253.013 62.3447 253.68H45.5047C45.638 255.44 46.2914 256.853 47.4647 257.92C48.638 258.987 50.078 259.52 51.7847 259.52C54.238 259.52 55.9714 258.493 56.9847 256.44H61.9047C61.238 258.467 60.0247 260.133 58.2647 261.44C56.5314 262.72 54.3714 263.36 51.7847 263.36C49.678 263.36 47.7847 262.893 46.1047 261.96C44.4514 261 43.1447 259.667 42.1847 257.96C41.2514 256.227 40.7847 254.227 40.7847 251.96C40.7847 249.693 41.238 247.707 42.1447 246C43.078 244.267 44.3714 242.933 46.0247 242C47.7047 241.067 49.6247 240.6 51.7847 240.6C53.8647 240.6 55.718 241.053 57.3447 241.96C58.9714 242.867 60.238 244.147 61.1447 245.8C62.0514 247.427 62.5047 249.307 62.5047 251.44ZM57.7447 250C57.718 248.32 57.118 246.973 55.9447 245.96C54.7714 244.947 53.318 244.44 51.5847 244.44C50.0114 244.44 48.6647 244.947 47.5447 245.96C46.4247 246.947 45.758 248.293 45.5447 250H57.7447ZM78.1122 240.6C79.8455 240.6 81.3922 240.96 82.7522 241.68C84.1389 242.4 85.2189 243.467 85.9922 244.88C86.7655 246.293 87.1522 248 87.1522 250V263H82.6322V250.68C82.6322 248.707 82.1389 247.2 81.1522 246.16C80.1655 245.093 78.8189 244.56 77.1122 244.56C75.4055 244.56 74.0455 245.093 73.0322 246.16C72.0455 247.2 71.5522 248.707 71.5522 250.68V263H66.9922V240.96H71.5522V243.48C72.2989 242.573 73.2455 241.867 74.3922 241.36C75.5655 240.853 76.8055 240.6 78.1122 240.6ZM101.849 240.6C103.555 240.6 105.062 240.947 106.369 241.64C107.702 242.307 108.742 243.147 109.489 244.16V240.96H114.089V263.36C114.089 265.387 113.662 267.187 112.809 268.76C111.955 270.36 110.715 271.613 109.089 272.52C107.489 273.427 105.569 273.88 103.329 273.88C100.342 273.88 97.8621 273.173 95.8888 271.76C93.9154 270.373 92.7954 268.48 92.5288 266.08H97.0488C97.3954 267.227 98.1288 268.147 99.2488 268.84C100.395 269.56 101.755 269.92 103.329 269.92C105.169 269.92 106.649 269.36 107.769 268.24C108.915 267.12 109.489 265.493 109.489 263.36V259.68C108.715 260.72 107.662 261.6 106.329 262.32C105.022 263.013 103.529 263.36 101.849 263.36C99.9288 263.36 98.1688 262.88 96.5688 261.92C94.9954 260.933 93.7421 259.573 92.8088 257.84C91.9021 256.08 91.4488 254.093 91.4488 251.88C91.4488 249.667 91.9021 247.707 92.8088 246C93.7421 244.293 94.9954 242.973 96.5688 242.04C98.1688 241.08 99.9288 240.6 101.849 240.6ZM109.489 251.96C109.489 250.44 109.169 249.12 108.529 248C107.915 246.88 107.102 246.027 106.089 245.44C105.075 244.853 103.982 244.56 102.809 244.56C101.635 244.56 100.542 244.853 99.5288 245.44C98.5154 246 97.6888 246.84 97.0488 247.96C96.4354 249.053 96.1288 250.36 96.1288 251.88C96.1288 253.4 96.4354 254.733 97.0488 255.88C97.6888 257.027 98.5154 257.907 99.5288 258.52C100.569 259.107 101.662 259.4 102.809 259.4C103.982 259.4 105.075 259.107 106.089 258.52C107.102 257.933 107.915 257.08 108.529 255.96C109.169 254.813 109.489 253.48 109.489 251.96ZM118.558 251.88C118.558 249.667 119.011 247.707 119.918 246C120.851 244.293 122.105 242.973 123.678 242.04C125.278 241.08 127.038 240.6 128.958 240.6C130.691 240.6 132.198 240.947 133.478 241.64C134.785 242.307 135.825 243.147 136.598 244.16V240.96H141.198V263H136.598V259.72C135.825 260.76 134.771 261.627 133.438 262.32C132.105 263.013 130.585 263.36 128.878 263.36C126.985 263.36 125.251 262.88 123.678 261.92C122.105 260.933 120.851 259.573 119.918 257.84C119.011 256.08 118.558 254.093 118.558 251.88ZM136.598 251.96C136.598 250.44 136.278 249.12 135.638 248C135.025 246.88 134.211 246.027 133.198 245.44C132.185 244.853 131.091 244.56 129.918 244.56C128.745 244.56 127.651 244.853 126.638 245.44C125.625 246 124.798 246.84 124.158 247.96C123.545 249.053 123.238 250.36 123.238 251.88C123.238 253.4 123.545 254.733 124.158 255.88C124.798 257.027 125.625 257.907 126.638 258.52C127.678 259.107 128.771 259.4 129.918 259.4C131.091 259.4 132.185 259.107 133.198 258.52C134.211 257.933 135.025 257.08 135.638 255.96C136.278 254.813 136.598 253.48 136.598 251.96ZM152.508 244.68V256.88C152.508 257.707 152.694 258.307 153.068 258.68C153.468 259.027 154.134 259.2 155.068 259.2H157.868V263H154.268C152.214 263 150.641 262.52 149.548 261.56C148.454 260.6 147.908 259.04 147.908 256.88V244.68H145.308V240.96H147.908V235.48H152.508V240.96H157.868V244.68H152.508ZM182.03 240.96V263H177.47V260.4C176.75 261.307 175.804 262.027 174.63 262.56C173.484 263.067 172.257 263.32 170.95 263.32C169.217 263.32 167.657 262.96 166.27 262.24C164.91 261.52 163.83 260.453 163.03 259.04C162.257 257.627 161.87 255.92 161.87 253.92V240.96H166.39V253.24C166.39 255.213 166.884 256.733 167.87 257.8C168.857 258.84 170.204 259.36 171.91 259.36C173.617 259.36 174.964 258.84 175.95 257.8C176.964 256.733 177.47 255.213 177.47 253.24V240.96H182.03ZM192.607 244.16C193.274 243.04 194.154 242.173 195.247 241.56C196.367 240.92 197.687 240.6 199.207 240.6V245.32H198.047C196.26 245.32 194.9 245.773 193.967 246.68C193.06 247.587 192.607 249.16 192.607 251.4V263H188.047V240.96H192.607V244.16ZM201.878 251.88C201.878 249.667 202.332 247.707 203.238 246C204.172 244.293 205.425 242.973 206.998 242.04C208.598 241.08 210.358 240.6 212.278 240.6C214.012 240.6 215.518 240.947 216.798 241.64C218.105 242.307 219.145 243.147 219.918 244.16V240.96H224.518V263H219.918V259.72C219.145 260.76 218.092 261.627 216.758 262.32C215.425 263.013 213.905 263.36 212.198 263.36C210.305 263.36 208.572 262.88 206.998 261.92C205.425 260.933 204.172 259.573 203.238 257.84C202.332 256.08 201.878 254.093 201.878 251.88ZM219.918 251.96C219.918 250.44 219.598 249.12 218.958 248C218.345 246.88 217.532 246.027 216.518 245.44C215.505 244.853 214.412 244.56 213.238 244.56C212.065 244.56 210.972 244.853 209.958 245.44C208.945 246 208.118 246.84 207.478 247.96C206.865 249.053 206.558 250.36 206.558 251.88C206.558 253.4 206.865 254.733 207.478 255.88C208.118 257.027 208.945 257.907 209.958 258.52C210.998 259.107 212.092 259.4 213.238 259.4C214.412 259.4 215.505 259.107 216.518 258.52C217.532 257.933 218.345 257.08 218.958 255.96C219.598 254.813 219.918 253.48 219.918 251.96ZM241.628 240.6C243.361 240.6 244.908 240.96 246.268 241.68C247.654 242.4 248.734 243.467 249.508 244.88C250.281 246.293 250.668 248 250.668 250V263H246.148V250.68C246.148 248.707 245.654 247.2 244.668 246.16C243.681 245.093 242.334 244.56 240.628 244.56C238.921 244.56 237.561 245.093 236.548 246.16C235.561 247.2 235.068 248.707 235.068 250.68V263H230.508V240.96H235.068V243.48C235.814 242.573 236.761 241.867 237.908 241.36C239.081 240.853 240.321 240.6 241.628 240.6ZM103.264 300.32H91.6239L89.6239 306H84.8639L94.8239 278.16H100.104L110.064 306H105.264L103.264 300.32ZM101.984 296.6L97.4639 283.68L92.9039 296.6H101.984ZM123.115 295L133.275 306H127.115L118.955 296.52V306H114.395V276.4H118.955V293.6L126.955 283.96H133.275L123.115 295ZM156.503 283.96V306H151.943V303.4C151.223 304.307 150.276 305.027 149.103 305.56C147.956 306.067 146.73 306.32 145.423 306.32C143.69 306.32 142.13 305.96 140.743 305.24C139.383 304.52 138.303 303.453 137.503 302.04C136.73 300.627 136.343 298.92 136.343 296.92V283.96H140.863V296.24C140.863 298.213 141.356 299.733 142.343 300.8C143.33 301.84 144.676 302.36 146.383 302.36C148.09 302.36 149.436 301.84 150.423 300.8C151.436 299.733 151.943 298.213 151.943 296.24V283.96H156.503ZM173.64 283.6C175.373 283.6 176.92 283.96 178.28 284.68C179.666 285.4 180.746 286.467 181.52 287.88C182.293 289.293 182.68 291 182.68 293V306H178.16V293.68C178.16 291.707 177.666 290.2 176.68 289.16C175.693 288.093 174.346 287.56 172.64 287.56C170.933 287.56 169.573 288.093 168.56 289.16C167.573 290.2 167.08 291.707 167.08 293.68V306H162.52V283.96H167.08V286.48C167.826 285.573 168.773 284.867 169.92 284.36C171.093 283.853 172.333 283.6 173.64 283.6Z" fill="#06314D"/>
<circle cx="134.5" cy="105.5" r="99" fill="#5B57A6" stroke="#0CEAC6" stroke-width="13"/>
<path d="M120.859 96.7531V108.398C120.859 108.398 125.141 117.714 135.907 116.856C146.672 115.998 148.752 108.766 148.752 108.766V96.6305H120.859V96.7531Z" fill="#FDD9A9"/>
<path d="M135.05 60.9594H141.656L139.209 103.127C139.209 103.127 133.215 103.617 130.768 102.514C128.199 101.411 119.88 67.7013 135.05 60.9594Z" fill="#FDD9A9"/>
<path d="M120.859 96.7531H148.874V100.43C148.874 100.43 138.109 113.424 120.859 108.521V96.7531Z" fill="#FCC089"/>
<path d="M135.907 39.6304V103.127C135.907 103.127 133.95 104.476 128.2 101.411C122.45 98.3465 118.536 95.6497 117.435 92.3401C116.334 89.0304 115.233 83.2691 115.233 83.2691C115.233 83.2691 106.669 68.9272 111.685 65.6175C111.685 65.6175 114.376 65.3723 114.743 66.4755C114.743 66.353 109.972 33.011 135.907 39.6304Z" fill="#FDD9A9"/>
<path d="M135.906 39.6304V103.127C135.906 103.127 137.864 104.476 143.613 101.411C149.363 98.3465 153.278 95.6497 154.379 92.3401C155.48 89.0304 156.581 83.2691 156.581 83.2691C156.581 83.2691 165.144 68.9272 160.128 65.6175C160.128 65.6175 157.437 65.3723 157.07 66.4755C157.07 66.353 161.719 33.011 135.906 39.6304Z" fill="#FEE6BA"/>
<path d="M185.453 124.456L151.444 110.36L148.753 108.889C146.551 115.385 135.908 116.979 135.908 116.979L134.807 164.295H137.743H189.123L185.453 124.456Z" fill="#F47B60"/>
<path d="M120.859 108.889L118.168 110.36L131.992 164.295H134.928L133.827 116.979C133.704 116.979 122.939 115.385 120.859 108.889Z" fill="#585856"/>
<path d="M133.705 116.979C126.609 117.837 120.86 108.888 120.86 108.888L117.679 110.359L83.5477 124.456L80 164.295H131.38H134.806L135.907 116.979H133.705Z" fill="#F15B3F"/>
<path d="M150.098 37.5465C150.098 37.5465 144.471 34.2368 141.29 32.5207C137.987 30.9271 124.775 27.6175 113.765 41.5917C102.755 55.6884 111.685 65.4949 111.685 65.4949C111.685 65.4949 113.765 65.4949 113.765 66.1078C113.765 66.7207 114.132 75.5465 114.744 74.9336C115.355 74.3207 117.802 62.4304 120.004 62.4304C122.206 62.4304 138.11 65.4949 147.896 49.9271C147.896 49.9271 149.12 62.4304 154.013 66.5981C154.135 66.5981 154.135 66.7207 154.258 66.7207C154.013 70.5207 153.891 74.811 153.891 74.811C153.891 74.811 155.848 71.1336 157.561 67.5788C160.13 66.7207 161.231 62.1852 161.231 62.1852C161.231 62.1852 164.167 38.7723 150.098 37.5465Z" fill="#414042"/>
<path d="M120.86 108.888C120.86 108.888 134.929 126.417 148.875 108.888L152.545 110.727C152.545 110.727 135.908 132.179 117.68 110.237L120.86 108.888Z" fill="#F29384"/>
<path d="M176.952 181.659C176.477 181.659 176.097 181.659 175.622 181.659C173.436 181.659 171.821 179.927 171.726 177.809C171.726 177.424 171.726 177.135 171.726 176.75V176.654C170.68 176.269 169.635 175.884 168.685 175.403C168.4 175.692 168.21 175.98 167.924 176.173C167.164 176.943 166.214 177.328 165.168 177.328C164.123 177.328 163.173 176.943 162.413 176.173C161.747 175.499 161.082 174.825 160.417 174.152C158.896 172.516 158.896 170.206 160.417 168.569C160.607 168.281 160.892 168.088 161.082 167.799L161.177 167.703C160.702 166.741 160.227 165.682 159.942 164.623H159.371C159.181 164.623 158.991 164.623 158.801 164.623C156.616 164.623 155 162.891 155 160.677C155 159.715 155 158.848 155 157.886C155 155.672 156.711 153.94 158.896 153.94C159.086 153.94 159.276 153.94 159.467 153.94H160.037C160.417 152.881 160.797 151.822 161.272 150.86L161.177 150.763C160.892 150.571 160.607 150.282 160.417 150.09C158.896 148.454 158.896 146.144 160.417 144.507C161.082 143.834 161.652 143.256 162.317 142.582C163.078 141.812 164.028 141.427 165.073 141.427C166.119 141.427 167.069 141.812 167.829 142.582C168.114 142.775 168.305 143.064 168.495 143.256L168.59 143.352C169.54 142.871 170.585 142.39 171.631 142.101C171.631 142.005 171.631 142.005 171.631 141.909C171.631 141.62 171.631 141.235 171.631 140.946C171.631 138.732 173.341 137.096 175.527 137C175.717 137 175.907 137 176.097 137H177.808C177.998 137 178.188 137 178.378 137C180.564 137 182.179 138.732 182.274 140.85C182.274 141.235 182.274 141.524 182.274 141.909V142.005C183.32 142.39 184.365 142.775 185.315 143.256C185.315 143.256 185.315 143.256 185.41 143.16C185.695 142.871 185.886 142.679 186.171 142.39C186.931 141.62 187.881 141.235 188.927 141.235C189.972 141.235 190.922 141.62 191.683 142.39C192.348 143.064 193.013 143.737 193.678 144.411C195.199 146.047 195.199 148.357 193.678 149.993C193.393 150.282 193.203 150.475 192.918 150.763C192.918 150.763 192.918 150.763 192.823 150.86C193.298 151.822 193.773 152.881 194.058 153.94H194.629C194.819 153.94 195.009 153.94 195.199 153.94C197.384 153.94 199 155.672 199 157.886C199 158.848 199 159.715 199 160.677C199 162.891 197.289 164.623 195.104 164.623C194.914 164.623 194.724 164.623 194.533 164.623H193.963C193.583 165.682 193.203 166.741 192.728 167.703C193.013 167.992 193.203 168.184 193.488 168.473C195.009 170.109 195.009 172.419 193.488 174.055C192.823 174.729 192.253 175.403 191.587 175.98C190.827 176.75 189.877 177.135 188.832 177.135C187.786 177.135 186.836 176.75 186.076 175.98C185.79 175.692 185.6 175.499 185.315 175.21C184.365 175.692 183.32 176.173 182.274 176.462C182.274 176.847 182.274 177.232 182.274 177.52C182.274 179.734 180.564 181.37 178.378 181.467C177.808 181.659 177.428 181.659 176.952 181.659ZM176.952 151.918C172.961 151.918 169.635 155.191 169.635 159.33C169.635 163.372 172.866 166.741 176.952 166.741C180.944 166.741 184.27 163.468 184.27 159.33C184.27 157.308 183.51 155.48 182.179 154.132C180.754 152.688 178.948 151.918 176.952 151.918Z" fill="#0FB0C0"/>
<path d="M176.954 139.406C177.429 139.406 177.809 139.406 178.284 139.406C179.139 139.406 179.805 140.08 179.805 140.946C179.805 141.524 179.805 142.197 179.805 142.775C179.805 143.545 180.185 144.026 180.85 144.219C182.18 144.604 183.416 145.085 184.651 145.759C185.412 146.144 185.887 146.144 186.457 145.47C186.837 145.085 187.217 144.7 187.692 144.219C188.358 143.545 189.213 143.545 189.878 144.219C190.543 144.892 191.113 145.47 191.779 146.144C192.444 146.817 192.444 147.684 191.779 148.357C191.399 148.839 190.923 149.224 190.543 149.609C189.973 150.186 189.973 150.667 190.353 151.341C191.018 152.592 191.589 153.844 191.969 155.191C192.159 155.865 192.634 156.25 193.394 156.25C193.964 156.25 194.63 156.25 195.2 156.25C196.055 156.25 196.72 156.923 196.72 157.79C196.72 158.656 196.72 159.618 196.72 160.485C196.72 161.447 196.15 162.025 195.2 162.025C194.63 162.025 193.964 162.025 193.394 162.025C192.634 162.025 192.159 162.41 191.969 163.083C191.589 164.431 191.113 165.682 190.353 166.933C189.973 167.607 190.068 168.184 190.638 168.762C191.018 169.147 191.399 169.532 191.874 170.013C192.539 170.687 192.539 171.553 191.874 172.227C191.208 172.901 190.638 173.478 189.973 174.152C189.308 174.826 188.453 174.826 187.787 174.152C187.407 173.767 187.027 173.382 186.647 172.997C185.982 172.323 185.507 172.323 184.746 172.708C183.606 173.382 182.37 173.863 181.04 174.248C180.185 174.537 179.9 174.922 179.9 175.788C179.9 176.366 179.9 176.943 179.9 177.424C179.9 178.387 179.234 178.964 178.379 178.964C177.524 178.964 176.573 178.964 175.718 178.964C174.863 178.964 174.198 178.29 174.198 177.424C174.198 176.847 174.198 176.269 174.198 175.692C174.198 174.826 173.913 174.441 173.057 174.248C171.727 173.863 170.491 173.382 169.256 172.708C168.496 172.323 168.021 172.419 167.45 172.997C167.07 173.382 166.69 173.767 166.215 174.248C165.55 174.922 164.694 174.922 164.029 174.248C163.364 173.574 162.794 172.997 162.129 172.323C161.463 171.649 161.463 170.783 162.129 170.109C162.509 169.724 162.984 169.243 163.364 168.858C163.934 168.281 164.029 167.799 163.649 167.029C162.984 165.778 162.414 164.527 162.034 163.18C161.843 162.506 161.368 162.121 160.703 162.121C160.133 162.121 159.468 162.121 158.897 162.121C158.042 162.121 157.377 161.447 157.377 160.581C157.377 159.715 157.377 158.752 157.377 157.886C157.377 156.923 157.947 156.346 158.897 156.346C159.468 156.346 160.133 156.346 160.703 156.346C161.463 156.346 161.939 155.961 162.129 155.287C162.509 153.94 162.984 152.689 163.744 151.437C164.124 150.764 164.029 150.186 163.459 149.609C162.889 149.224 162.509 148.839 162.129 148.357C161.463 147.684 161.463 146.817 162.129 146.144C162.794 145.47 163.364 144.892 164.029 144.219C164.694 143.545 165.55 143.545 166.215 144.219C166.595 144.604 167.07 145.085 167.45 145.47C168.021 146.047 168.496 146.144 169.161 145.759C170.396 145.085 171.727 144.507 173.057 144.122C173.723 143.93 174.103 143.449 174.103 142.679C174.103 142.101 174.103 141.428 174.103 140.85C174.103 139.888 174.768 139.31 175.623 139.31C176.098 139.406 176.478 139.406 176.954 139.406ZM167.26 159.233C167.26 164.623 171.537 169.051 176.954 169.051C182.275 169.051 186.647 164.72 186.647 159.233C186.647 153.844 182.37 149.416 176.954 149.416C171.632 149.512 167.26 153.844 167.26 159.233Z" fill="white"/>
</svg>
